<?xml version="1.0" encoding="UTF-8" standalone="no"?>
<!DOCTYPE svg PUBLIC "-//W3C//DTD SVG 1.1//EN" "http://www.w3.org/Graphics/SVG/1.1/DTD/svg11.dtd">
<svg xmlns="http://www.w3.org/2000/svg" version="1.1" viewBox="0.00 0.00 770.00 1008.00">
<g stroke-width="2.00" fill="none" stroke-linecap="butt">
<path stroke="#d8ba94" vector-effect="non-scaling-stroke" d="
  M 445.53 242.72
  C 439.46 244.82 433.29 244.24 427.98 244.07
  C 424.37 243.96 420.96 244.07 417.75 244.40
  C 405.20 245.68 391.77 244.79 378.70 245.95
  C 370.04 246.72 361.46 246.89 352.95 246.47
  C 346.23 246.14 339.39 248.04 332.41 248.60
  C 325.05 249.19 319.08 249.75 314.49 250.29
  C 311.13 250.68 308.04 251.72 305.23 253.39
  C 304.90 253.59 305.04 254.09 305.42 254.08
  C 305.96 254.07 311.52 253.76 322.10 253.15
  C 325.48 252.96 328.58 253.43 331.40 254.57
  C 331.85 254.76 332.00 255.07 331.85 255.50
  C 331.77 255.73 331.61 255.86 331.38 255.91
  C 325.43 257.08 317.67 258.21 308.12 259.30
  C 299.86 260.24 293.35 261.65 286.22 262.57
  C 282.79 263.02 278.51 263.82 273.39 264.98
  C 264.26 267.04 256.52 268.53 248.78 272.28
  C 241.48 275.81 234.68 279.50 228.38 283.37
  C 226.45 284.56 224.67 286.17 223.06 288.20
  C 219.03 293.30 220.72 298.29 222.98 303.62"
/>
<path stroke="#b1997a" vector-effect="non-scaling-stroke" d="
  M 222.98 303.62
  C 220.26 302.13 217.60 300.58 214.99 298.98
  C 212.57 297.50 212.01 296.32 211.30 293.86
  C 210.37 290.64 210.47 287.31 211.58 283.88
  C 211.62 283.74 211.54 283.60 211.40 283.56
  L 210.58 283.34
  C 210.44 283.30 210.28 283.37 210.22 283.50
  C 209.00 285.91 207.58 286.49 205.40 284.62"
/>
<path stroke="#bba486" vector-effect="non-scaling-stroke" d="
  M 567.63 272.79
  C 568.71 275.98 569.12 278.55 568.86 280.50
  C 568.62 282.27 567.98 284.03 566.94 285.76
  C 566.13 287.12 564.88 288.51 563.19 289.93
  C 557.82 294.44 551.90 298.13 545.42 300.99"
/>
<path stroke="#c19f74" vector-effect="non-scaling-stroke" d="
  M 545.42 300.99
  C 537.59 304.54 529.45 307.32 521.00 309.34"
/>
<path stroke="#d8ba94" vector-effect="non-scaling-stroke" d="
  M 521.00 309.34
  C 491.73 317.06 462.39 322.04 433.00 324.27
  C 424.87 324.88 414.24 325.54 401.10 326.25
  C 392.80 326.69 382.84 326.68 373.71 327.16"
/>
<path stroke="#e2c9a8" vector-effect="non-scaling-stroke" d="
  M 373.71 327.16
  C 382.92 325.20 390.51 323.97 396.48 323.46
  C 407.46 322.53 415.52 321.73 420.65 321.06
  C 436.06 319.07 454.70 314.94 476.55 308.66
  C 484.20 306.47 504.44 298.94 503.66 288.62
  C 503.20 282.53 497.05 277.47 492.17 273.96
  C 485.24 268.97 479.66 264.89 475.43 261.70
  C 475.15 261.49 474.85 261.31 474.52 261.17
  C 465.73 257.51 456.91 255.56 448.08 255.31
  C 437.71 255.02 431.34 257.03 422.96 260.59
  C 417.90 262.73 413.03 263.56 408.66 261.77
  C 405.63 260.52 402.06 259.05 397.93 257.36
  C 384.41 251.80 365.47 253.93 351.41 257.98
  C 335.27 262.63 325.83 265.62 314.25 266.61
  C 301.11 267.74 291.44 268.69 285.24 269.47
  C 269.96 271.41 253.98 277.26 245.25 289.69
  C 240.25 296.80 240.43 303.92 242.02 312.11"
/>
<path stroke="#e6d8c3" vector-effect="non-scaling-stroke" d="
  M 242.02 312.11
  L 227.24 306.84"
/>
<path stroke="#bba486" vector-effect="non-scaling-stroke" d="
  M 227.24 306.84
  L 222.98 303.62"
/>
<path stroke="#c0b7a9" vector-effect="non-scaling-stroke" d="
  M 227.24 306.84
  C 220.01 304.10 213.51 300.31 207.74 295.46"
/>
<path stroke="#c0b09a" vector-effect="non-scaling-stroke" d="
  M 207.74 295.46
  C 206.57 293.52 204.89 291.78 202.70 290.23"
/>
<path stroke="#9b7e5a" vector-effect="non-scaling-stroke" d="
  M 573.25 292.00
  C 565.68 295.47 558.43 298.26 551.50 300.38
  C 549.66 300.94 547.63 301.14 545.42 300.99"
/>
<path stroke="#9c7442" vector-effect="non-scaling-stroke" d="
  M 569.61 323.86
  C 567.16 322.12 564.74 320.49 562.36 318.98
  C 558.00 316.22 554.36 319.38 552.18 322.81
  C 548.84 328.08 546.22 333.36 544.32 338.65
  C 543.92 339.78 543.72 340.96 543.72 342.15
  L 543.78 359.29"
/>
<path stroke="#8a6336" vector-effect="non-scaling-stroke" d="
  M 543.78 359.29
  C 543.57 359.64 543.29 359.95 542.96 360.22"
/>
<path stroke="#9c7442" vector-effect="non-scaling-stroke" d="
  M 542.96 360.22
  L 538.74 361.36
  C 538.42 361.45 538.08 361.41 537.80 361.24
  C 524.61 353.52 511.35 347.29 495.56 350.13
  C 476.09 353.64 463.09 364.37 451.72 379.82"
/>
<path stroke="#946c3c" vector-effect="non-scaling-stroke" d="
  M 451.72 379.82
  L 411.15 383.52"
/>
<path stroke="#9c7442" vector-effect="non-scaling-stroke" d="
  M 411.15 383.52
  C 410.94 383.55 410.64 383.50 410.26 383.39"
/>
<path stroke="#ab8454" vector-effect="non-scaling-stroke" d="
  M 410.26 383.39
  C 418.46 374.06 423.59 364.37 418.92 352.13
  C 417.67 348.85 416.08 345.32 419.57 343.18
  C 421.78 341.82 424.78 340.74 428.55 339.93
  C 439.36 337.60 451.32 336.49 461.95 334.46
  C 477.66 331.46 486.15 329.86 487.40 329.67
  C 493.39 328.72 497.93 327.79 501.02 326.87
  C 507.32 324.99 515.46 322.55 522.79 321.99
  C 526.52 321.71 528.74 321.41 529.45 321.09
  C 533.34 319.33 536.76 317.92 539.69 316.86
  C 546.47 314.42 552.85 310.10 558.93 305.91"
/>
<path stroke="#b89467" vector-effect="non-scaling-stroke" d="
  M 558.93 305.91
  C 562.57 303.80 565.88 301.05 568.87 297.66
  C 569.37 297.09 568.77 296.22 568.06 296.50
  C 561.46 299.05 555.56 303.05 548.24 304.77
  C 541.04 306.47 533.62 308.34 525.99 310.38
  C 523.66 311.00 521.99 310.65 521.00 309.34"
/>
<path stroke="#c29f74" vector-effect="non-scaling-stroke" d="
  M 558.93 305.91
  C 552.95 308.70 546.79 311.95 540.84 314.00
  C 537.58 315.13 534.63 316.03 532.00 316.69
  C 524.47 318.58 517.96 320.93 510.47 322.36
  C 505.30 323.35 500.00 324.44 494.58 325.64
  C 491.38 326.34 486.09 326.72 478.71 326.79
  C 478.38 326.79 478.06 326.82 477.74 326.89
  C 473.92 327.68 468.98 328.68 462.93 329.88
  C 456.38 331.17 448.65 332.41 439.76 333.58
  C 435.83 334.10 429.17 334.68 419.76 335.33
  C 413.64 335.75 406.97 336.43 399.76 337.37
  C 392.53 338.30 380.20 338.15 368.68 339.07
  C 368.35 339.10 368.09 339.34 368.03 339.65
  C 366.92 345.33 366.95 350.13 368.12 354.05
  C 371.64 365.79 373.46 373.11 372.99 384.53"
/>
<path stroke="#b89467" vector-effect="non-scaling-stroke" d="
  M 372.99 384.53
  L 368.28 384.43"
/>
<path stroke="#c29f74" vector-effect="non-scaling-stroke" d="
  M 368.28 384.43
  L 343.23 383.73
  C 342.82 383.71 342.49 384.05 342.51 384.46
  C 342.97 393.79 343.22 402.29 343.07 411.02
  C 342.67 434.97 342.57 449.12 342.76 453.48
  C 344.41 490.64 346.62 533.87 345.05 573.27
  C 344.89 577.36 344.23 586.75 343.07 601.46
  C 339.99 640.61 338.34 679.77 337.33 720.87
  C 337.08 730.78 338.38 739.12 339.91 749.31
  C 342.01 763.25 325.39 759.86 317.69 758.45
  C 316.22 758.18 304.34 755.67 282.04 750.90
  C 281.72 750.83 281.41 750.72 281.13 750.55
  C 274.69 746.78 268.55 742.50 262.72 737.70"
/>
<path stroke="#d8bd9b" vector-effect="non-scaling-stroke" d="
  M 262.20 734.79
  L 265.90 738.30
  C 267.10 739.43 269.05 738.43 268.84 736.80
  C 268.39 733.23 267.77 729.23 266.98 724.80
  C 265.64 717.28 266.67 710.49 266.20 702.85
  C 265.72 695.10 265.84 685.55 265.02 676.85
  C 264.03 666.30 263.87 654.83 262.27 643.55
  C 261.65 639.16 261.22 635.10 260.97 631.37
  C 260.61 625.93 259.65 619.85 259.03 614.09"
/>
<path stroke="#d8ba94" vector-effect="non-scaling-stroke" d="
  M 259.03 614.09
  C 259.99 606.00 261.25 598.01 262.80 590.12
  C 264.24 582.77 266.95 570.49 276.23 569.49
  C 278.64 569.23 283.05 570.04 285.52 569.15
  C 290.99 567.19 292.27 559.67 292.78 554.65
  C 293.29 549.56 293.53 544.68 293.48 540.01
  C 293.33 524.33 293.71 506.65 295.54 489.59
  C 297.45 471.85 298.46 454.92 298.33 436.97
  C 298.19 417.10 299.34 398.89 301.82 379.94"
/>
<path stroke="#d8bd9b" vector-effect="non-scaling-stroke" d="
  M 373.71 327.16
  C 369.30 327.17 364.89 327.16 360.48 327.15
  C 344.25 327.10 326.73 325.14 313.97 327.43
  C 313.82 327.46 313.71 327.59 313.71 327.75
  C 313.71 327.90 313.82 328.03 313.97 328.06
  C 317.57 328.68 327.36 329.87 322.41 335.89
  C 322.22 336.12 321.92 336.25 321.63 336.22
  L 301.11 334.49
  C 300.90 334.47 300.80 334.73 300.96 334.87
  C 306.97 339.82 312.10 344.69 316.36 349.48
  C 324.96 359.17 327.68 369.26 327.92 381.97
  C 327.93 382.23 327.70 382.44 327.45 382.41
  L 301.82 379.94"
/>
<path stroke="#e2c9a8" vector-effect="non-scaling-stroke" d="
  M 301.82 379.94
  L 289.17 378.02"
/>
<path stroke="#e7d5bb" vector-effect="non-scaling-stroke" d="
  M 289.17 378.02
  C 290.16 367.18 286.95 357.43 279.52 348.77
  C 274.89 343.38 269.45 336.55 263.20 328.30"
/>
<path stroke="#e7dcca" vector-effect="non-scaling-stroke" d="
  M 263.20 328.30
  C 274.09 330.69 285.29 331.76 296.37 333.49
  C 298.03 333.75 300.04 333.88 302.39 333.89
  C 302.58 333.89 302.66 333.66 302.52 333.53
  C 299.32 330.74 293.20 329.80 288.85 329.00
  C 288.70 328.97 288.60 328.83 288.61 328.68
  L 288.64 328.35
  C 288.66 328.15 288.83 328.00 289.03 328.02
  L 309.17 329.72
  C 309.42 329.74 309.64 329.55 309.66 329.30
  L 309.69 329.01
  C 309.70 328.83 309.57 328.67 309.40 328.65
  C 301.62 327.47 295.15 325.39 288.32 324.36
  C 285.89 323.99 282.34 323.05 277.66 321.54
  C 268.86 318.70 257.18 316.95 251.01 315.00
  C 247.98 314.05 244.99 313.08 242.02 312.11"
/>
<path stroke="#ece4d6" vector-effect="non-scaling-stroke" d="
  M 207.74 295.46
  C 206.07 299.29 206.15 302.99 207.98 306.56
  C 208.85 308.24 210.35 309.73 212.48 311.04
  C 217.77 314.28 223.67 317.04 230.17 319.32
  C 241.73 323.37 252.74 326.36 263.20 328.30"
/>
<path stroke="#e7d1b4" vector-effect="non-scaling-stroke" d="
  M 289.17 378.02
  C 276.90 376.03 264.69 373.52 252.54 370.47
  C 245.99 368.82 239.55 366.65 233.24 363.96"
/>
<path stroke="#e7d5bb" vector-effect="non-scaling-stroke" d="
  M 233.24 363.96
  L 223.92 359.57
  C 223.68 359.46 223.40 359.62 223.39 359.88
  C 222.72 370.66 224.09 381.79 224.57 392.64
  C 224.81 397.91 226.47 408.38 229.56 424.04"
/>
<path stroke="#e7d1b4" vector-effect="non-scaling-stroke" d="
  M 229.56 424.04
  L 230.58 433.96"
/>
<path stroke="#e7d5bb" vector-effect="non-scaling-stroke" d="
  M 230.58 433.96
  C 231.02 449.88 231.68 461.43 232.55 468.62
  C 234.20 482.19 235.82 495.75 237.41 509.32
  C 240.40 534.82 241.67 560.41 241.22 586.08"
/>
<path stroke="#845d31" vector-effect="non-scaling-stroke" d="
  M 563.94 375.73
  C 563.41 372.79 563.02 368.42 562.75 362.63
  C 562.46 356.36 560.67 346.28 560.60 338.16
  C 560.55 331.57 560.47 327.71 560.35 326.60
  C 560.32 326.33 560.22 326.08 560.05 325.88
  C 559.10 324.73 558.25 324.06 557.49 323.87
  C 557.13 323.78 556.75 323.91 556.53 324.21
  C 555.25 325.88 554.55 327.52 554.44 329.13
  C 553.99 335.20 554.14 343.06 554.89 352.72
  C 554.96 353.50 554.58 354.31 553.77 355.15
  C 553.47 355.46 553.10 355.70 552.70 355.86
  L 543.78 359.29"
/>
<path stroke="#7c562b" vector-effect="non-scaling-stroke" d="
  M 553.87 475.29
  C 552.48 461.14 551.33 446.97 550.43 432.78
  C 550.01 426.05 549.34 420.06 548.43 414.80
  C 547.34 408.58 547.82 402.21 548.09 397.49
  C 548.10 397.38 548.03 397.28 547.92 397.25
  L 547.60 397.17
  C 547.56 397.15 547.51 397.18 547.50 397.22
  L 546.21 403.99"
/>
<path stroke="#845d31" vector-effect="non-scaling-stroke" d="
  M 546.21 403.99
  C 543.41 412.95 541.12 419.36 536.50 426.93"
/>
<path stroke="#7c562b" vector-effect="non-scaling-stroke" d="
  M 536.50 426.93
  C 515.67 444.08 504.96 419.24 499.27 404.08
  C 496.33 396.23 494.95 387.21 495.14 377.00
  C 495.15 376.39 494.82 376.11 494.15 376.14
  C 493.80 376.16 493.51 376.43 493.48 376.78
  C 493.21 379.38 493.07 382.15 493.06 385.10
  C 492.96 403.48 492.64 419.27 492.78 438.97
  C 492.93 459.34 493.10 479.69 493.27 500.02
  C 493.44 519.49 495.41 539.26 499.18 559.31
  C 503.45 582.06 508.36 605.38 513.90 629.26
  C 513.94 629.44 514.19 629.45 514.26 629.28
  C 517.05 622.05 519.05 614.66 520.24 607.12
  C 520.25 607.08 520.28 607.06 520.31 607.06
  C 520.35 607.06 520.38 607.08 520.39 607.12
  C 522.30 618.63 523.33 630.66 523.48 643.20
  C 523.51 645.19 523.50 658.13 523.47 682.03
  C 523.46 686.78 523.85 695.14 524.64 707.13
  C 525.00 712.72 524.27 718.74 522.44 725.21
  C 522.35 725.52 521.91 725.52 521.81 725.21
  L 520.34 720.58
  C 520.26 720.33 519.98 720.21 519.75 720.33
  C 500.30 730.39 479.49 738.07 457.30 743.36
  C 449.67 745.18 436.69 746.89 434.42 736.76
  C 433.77 733.87 433.54 731.34 433.74 729.17
  C 434.94 716.40 435.70 704.09 436.03 692.23
  C 436.53 674.01 437.51 665.97 439.46 645.15
  C 439.69 642.70 439.88 639.72 440.03 636.21
  C 440.73 620.22 440.96 601.88 442.29 585.54
  C 443.22 574.11 444.43 560.09 445.92 543.47
  C 447.90 521.49 448.30 498.63 448.99 478.52
  C 449.34 468.40 450.57 455.29 452.69 439.19
  C 455.35 419.01 461.25 399.42 459.98 378.89"
/>
<path stroke="#845d31" vector-effect="non-scaling-stroke" d="
  M 459.98 378.89
  C 468.82 377.62 477.65 376.22 486.46 374.70
  C 489.27 374.21 493.79 373.22 500.02 371.71
  C 504.47 370.63 509.00 369.73 513.63 369.02"
/>
<path stroke="#7c562b" vector-effect="non-scaling-stroke" d="
  M 513.63 369.02
  C 519.22 378.20 526.86 385.19 536.57 389.98
  C 536.87 390.13 537.23 390.02 537.39 389.73
  C 538.34 388.05 539.11 385.78 539.70 382.92
  C 541.15 375.81 542.18 370.47 542.79 366.89
  C 543.13 364.91 543.12 362.85 542.76 360.70"
/>
<path stroke="#845d31" vector-effect="non-scaling-stroke" d="
  M 542.76 360.70
  C 542.85 360.63 542.91 360.47 542.96 360.22"
/>
<path stroke="#a67f4f" vector-effect="non-scaling-stroke" d="
  M 410.26 383.39
  L 400.18 383.93"
/>
<path stroke="#ab8454" vector-effect="non-scaling-stroke" d="
  M 400.18 383.93
  L 372.99 384.53"
/>
<path stroke="#8e6737" vector-effect="non-scaling-stroke" d="
  M 542.76 360.70
  L 513.63 369.02"
/>
<path stroke="#8e6737" vector-effect="non-scaling-stroke" d="
  M 459.98 378.89
  L 451.72 379.82"
/>
<path stroke="#845d31" vector-effect="non-scaling-stroke" d="
  M 363.96 771.86
  L 362.22 771.73"
/>
<path stroke="#896b46" vector-effect="non-scaling-stroke" d="
  M 362.22 771.73
  L 345.47 770.10"
/>
<path stroke="#9c7442" vector-effect="non-scaling-stroke" d="
  M 345.47 770.10
  L 362.21 770.98
  C 362.53 771.00 362.85 770.98 363.16 770.93
  C 370.97 769.71 377.76 768.19 383.54 766.36
  C 393.22 763.29 397.92 757.95 395.38 747.50
  C 393.16 738.37 391.81 731.64 391.33 727.32
  C 390.53 720.20 390.15 713.03 390.19 705.82
  C 390.35 678.86 389.54 657.05 393.24 633.68
  C 396.60 612.43 399.41 596.04 400.54 577.44
  C 401.60 560.11 402.00 540.69 401.74 519.16
  C 401.57 504.85 400.32 491.66 398.65 476.80
  C 397.00 462.04 396.90 446.80 398.36 431.08
  C 400.33 409.90 401.52 400.53 400.18 383.93"
/>
<path stroke="#8e6737" vector-effect="non-scaling-stroke" d="
  M 536.50 426.93
  C 534.33 434.38 532.86 440.94 532.07 446.61
  C 530.15 460.51 528.88 477.63 528.94 494.64
  C 528.98 506.83 528.65 519.60 527.96 532.97
  C 527.64 539.17 527.88 545.95 528.65 551.92
  C 528.65 551.95 528.68 551.97 528.71 551.97
  C 528.74 551.97 528.76 551.95 528.77 551.92
  C 530.39 543.18 531.05 534.95 532.52 526.35
  C 533.83 518.64 535.08 509.80 536.27 499.82
  C 538.58 480.37 539.99 466.45 542.90 442.93
  C 544.36 431.12 545.52 420.56 546.38 411.25
  C 546.57 409.14 546.52 406.72 546.21 403.99"
/>
<path stroke="#b49670" vector-effect="non-scaling-stroke" d="
  M 528.50 733.45
  L 505.89 751.56"
/>
<path stroke="#b9a58b" vector-effect="non-scaling-stroke" d="
  M 505.89 751.56
  C 501.27 753.63 496.60 755.65 491.87 757.64
  C 487.51 759.46 483.48 760.31 479.49 762.22
  C 479.26 762.33 479.02 762.41 478.77 762.46
  L 464.12 765.48"
/>
<path stroke="#7c562b" vector-effect="non-scaling-stroke" d="
  M 464.12 765.48
  C 459.03 764.62 454.02 764.87 449.10 766.24
  C 443.69 767.75 440.96 768.50 440.93 768.51
  C 434.01 769.83 426.45 769.95 420.03 770.82
  C 412.76 771.81 407.33 772.37 403.75 772.50
  C 392.63 772.91 379.37 772.70 363.96 771.86"
/>
<path stroke="#8e6737" vector-effect="non-scaling-stroke" d="
  M 363.96 771.86
  L 381.64 771.91
  C 381.94 771.91 382.24 771.87 382.54 771.80
  C 390.89 769.69 406.30 766.63 407.04 755.71
  C 407.27 752.34 407.14 749.63 406.67 747.60
  C 403.59 734.39 402.07 723.40 402.10 714.63
  C 402.15 698.98 402.25 683.13 402.39 667.08
  C 402.61 642.87 406.33 619.97 409.16 597.42
  C 410.52 586.53 411.83 572.21 413.10 554.45
  C 414.31 537.28 414.85 523.87 414.72 514.20
  C 414.49 497.58 412.50 478.41 411.70 463.76
  C 410.76 446.37 412.03 433.46 413.87 414.17
  C 414.86 403.82 413.96 393.61 411.15 383.52"
/>
<path stroke="#ab8454" vector-effect="non-scaling-stroke" d="
  M 368.28 384.43
  C 369.13 406.70 367.36 427.51 367.31 447.54
  C 367.25 468.60 368.80 485.30 369.86 510.14
  C 370.43 523.47 370.51 541.67 370.10 564.75
  C 369.85 578.74 369.07 592.43 367.75 605.80
  C 366.40 619.48 363.81 635.86 362.91 651.47
  C 362.01 667.10 361.79 683.89 362.26 701.84
  C 362.66 717.08 364.31 729.79 366.29 744.96
  C 367.99 757.99 362.59 763.57 351.69 769.17
  C 351.43 769.30 351.15 769.36 350.86 769.35
  L 336.21 768.80"
/>
<path stroke="#997b58" vector-effect="non-scaling-stroke" d="
  M 336.21 768.80
  C 323.91 767.07 313.60 764.92 305.28 762.35
  C 298.63 760.29 294.02 758.95 291.45 758.32
  C 291.08 758.23 290.26 757.82 289.00 757.08"
/>
<path stroke="#ccae88" vector-effect="non-scaling-stroke" d="
  M 289.00 757.08
  C 289.58 757.16 290.04 757.12 290.39 756.95
  C 290.71 756.80 290.80 756.38 290.58 756.11
  C 289.61 754.91 288.03 754.13 285.84 753.76
  C 285.31 753.67 284.85 754.13 284.93 754.66
  C 284.95 754.77 285.13 754.97 285.46 755.25"
/>
<path stroke="#997b58" vector-effect="non-scaling-stroke" d="
  M 285.46 755.25
  L 274.84 752.01
  C 274.46 751.89 274.08 752.20 274.11 752.60
  L 274.47 757.48"
/>
<path stroke="#a58967" vector-effect="non-scaling-stroke" d="
  M 274.47 757.48
  C 274.47 759.21 274.15 760.82 273.52 762.31"
/>
<path stroke="#e2c9a8" vector-effect="non-scaling-stroke" d="
  M 259.03 614.09
  C 258.50 609.47 257.53 604.03 256.10 597.76
  C 252.29 581.03 250.72 563.82 248.58 541.47
  C 247.92 534.56 246.23 527.53 245.31 520.77
  C 243.26 505.68 241.22 490.67 239.21 475.76
  C 238.77 472.49 237.88 468.45 236.55 463.63
  C 233.86 453.90 231.87 444.01 230.58 433.96"
/>
<path stroke="#8f704b" vector-effect="non-scaling-stroke" d="
  M 345.47 770.10
  L 336.21 768.80"
/>
<path stroke="#e2c9a8" vector-effect="non-scaling-stroke" d="
  M 233.24 363.96
  C 244.18 373.23 248.80 382.13 240.47 395.61
  C 237.12 401.02 233.39 405.91 231.58 411.77
  C 230.37 415.68 229.69 419.77 229.56 424.04"
/>
<path stroke="#a07d56" vector-effect="non-scaling-stroke" d="
  M 456.22 767.97
  C 443.63 770.41 430.99 772.23 418.30 773.43"
/>
<path stroke="#836848" vector-effect="non-scaling-stroke" d="
  M 418.30 773.43
  C 414.07 774.35 409.80 774.82 405.50 774.85
  C 389.07 774.96 372.65 774.49 356.26 773.45
  C 353.41 773.27 350.58 773.15 347.77 773.09"
/>
<path stroke="#af9a7f" vector-effect="non-scaling-stroke" d="
  M 285.46 755.25
  C 286.45 756.16 287.63 756.77 289.00 757.08"
/>
<path stroke="#775a3a" vector-effect="non-scaling-stroke" d="
  M 362.22 771.73
  L 344.22 770.80
  C 344.15 770.80 344.09 770.85 344.07 770.92
  L 343.90 771.57
  C 343.87 771.69 343.94 771.82 344.06 771.86
  L 347.77 773.09"
/>
<path stroke="#88755e" vector-effect="non-scaling-stroke" d="
  M 347.77 773.09
  C 342.36 772.37 336.96 771.52 331.58 770.54
  C 326.00 769.52 320.46 768.98 315.99 769.55
  C 314.58 769.73 314.07 771.51 315.17 772.42
  C 315.27 772.50 315.38 772.64 315.49 772.84
  C 315.67 773.15 315.99 773.36 316.35 773.41
  C 327.56 775.05 337.24 776.68 345.38 778.29
  C 350.32 779.27 353.43 782.56 356.24 786.31
  C 356.44 786.58 356.26 786.96 355.93 786.98
  C 352.46 787.21 348.99 787.04 345.53 786.47
  C 339.15 785.41 332.77 784.03 326.38 782.34
  C 324.19 781.75 321.85 782.16 319.38 783.55"
/>
<path stroke="#b4a28b" vector-effect="non-scaling-stroke" d="
  M 319.38 783.55
  C 319.24 784.35 319.66 784.95 320.64 785.35
  C 321.49 785.70 322.19 785.82 322.74 785.73"
/>
<path stroke="#88755e" vector-effect="non-scaling-stroke" d="
  M 322.74 785.73
  C 337.25 788.32 351.75 790.93 366.26 793.55
  C 372.68 794.71 377.67 795.27 381.22 795.23
  C 389.06 795.15 396.54 794.78 403.66 794.13
  C 404.37 794.07 404.80 793.78 404.95 793.27
  C 405.26 792.18 405.27 791.14 404.97 790.16
  C 404.85 789.76 404.52 789.47 404.12 789.38
  C 398.33 788.16 392.96 787.58 388.02 787.64
  C 384.37 787.69 381.12 787.13 378.12 785.69
  C 378.09 785.67 378.07 785.63 378.08 785.60
  C 378.10 785.56 378.13 785.54 378.17 785.55
  C 378.76 785.68 379.26 785.86 379.65 786.10
  C 379.99 786.31 380.41 786.35 380.78 786.22
  C 382.23 785.69 383.22 785.42 383.73 785.42
  C 397.59 785.36 404.89 785.80 414.12 783.59
  C 417.46 782.79 420.70 782.46 423.85 782.60
  C 424.47 782.63 425.03 782.22 425.19 781.62
  L 426.46 776.88
  C 426.49 776.76 426.43 776.64 426.31 776.61
  L 425.96 776.52
  C 425.95 776.51 425.94 776.52 425.93 776.53
  L 424.81 781.66
  C 424.78 781.77 424.70 781.85 424.62 781.84
  L 424.61 781.84
  C 424.48 781.84 424.37 781.71 424.40 781.58
  L 425.24 777.21
  C 425.32 776.82 425.58 776.49 425.95 776.33
  L 429.28 774.89"
/>
<path stroke="#a58b6b" vector-effect="non-scaling-stroke" d="
  M 429.28 774.89
  L 441.31 773.46
  C 441.52 773.44 441.66 773.67 441.54 773.84
  L 432.84 786.92"
/>
<path stroke="#88755e" vector-effect="non-scaling-stroke" d="
  M 432.84 786.92
  L 419.23 787.00
  C 419.17 787.00 419.12 786.95 419.13 786.90
  L 419.16 786.64
  C 419.17 786.49 419.31 786.38 419.46 786.41
  C 423.37 787.02 427.36 787.17 431.45 786.84
  C 432.13 786.79 432.31 785.88 431.70 785.57
  C 430.03 784.72 428.38 784.28 426.74 784.27
  C 420.77 784.22 415.19 784.79 410.00 786.00
  C 409.55 786.11 409.53 786.74 409.97 786.88
  C 412.82 787.75 415.23 789.26 417.19 791.40
  C 418.36 792.68 420.19 793.56 421.61 793.03
  C 426.32 791.27 431.20 790.17 436.26 789.73
  C 438.37 789.55 441.12 788.62 444.50 786.93"
/>
<path stroke="#af9a7f" vector-effect="non-scaling-stroke" d="
  M 444.50 786.93
  C 445.39 786.77 446.25 786.39 447.06 785.80"
/>
<path stroke="#a58b6b" vector-effect="non-scaling-stroke" d="
  M 447.06 785.80
  C 448.56 785.05 450.11 784.79 451.72 785.01"
/>
<path stroke="#88755e" vector-effect="non-scaling-stroke" d="
  M 281.83 770.26
  C 285.73 771.29 289.00 770.75 291.63 768.64
  C 291.83 768.48 291.79 768.16 291.56 768.05
  C 289.23 766.90 286.85 765.89 284.41 765.01
  C 280.18 763.49 277.19 760.90 274.47 757.48"
/>
<path stroke="#e7dcca" vector-effect="non-scaling-stroke" d="
  M 516.89 760.89
  C 517.59 758.76 518.64 756.72 520.05 754.77
  C 520.14 754.64 520.22 754.49 520.28 754.34
  L 521.54 750.92
  C 521.77 750.31 521.48 749.63 520.88 749.36
  C 519.86 748.85 515.24 750.36 510.51 751.43
  C 509.42 751.68 507.88 751.72 505.89 751.56"
/>
<path stroke="#ddcdb6" vector-effect="non-scaling-stroke" d="
  M 508.52 768.44
  C 506.53 769.03 504.75 770.02 503.20 771.41
  C 502.96 771.63 502.69 771.80 502.39 771.93
  C 499.74 773.06 497.76 774.68 494.85 775.96
  C 486.66 779.59 478.32 783.15 469.84 786.64"
/>
<path stroke="#b4a99a" vector-effect="non-scaling-stroke" d="
  M 452.51 791.67
  C 451.75 791.36 451.37 790.82 451.36 790.03
  C 451.35 789.69 451.46 789.36 451.65 789.08
  L 453.30 786.74
  C 453.64 786.25 453.47 785.57 452.94 785.30
  C 452.69 785.17 452.29 785.07 451.72 785.01"
/>
<path stroke="#ddcdb6" vector-effect="non-scaling-stroke" d="
  M 451.72 785.01
  C 451.03 784.95 450.67 784.80 450.63 784.57
  C 450.53 783.95 450.95 783.35 451.60 783.18
  C 454.03 782.55 455.25 782.23 455.28 782.22
  C 455.75 782.05 455.70 781.37 455.21 781.28
  C 453.30 780.93 452.30 779.28 452.19 776.33
  C 452.14 775.14 452.50 774.35 453.27 773.97
  C 453.58 773.82 454.03 773.36 454.62 772.60
  C 454.74 772.44 454.82 772.25 454.84 772.05
  C 454.90 771.48 454.66 770.94 454.11 770.41
  C 453.55 769.88 453.81 768.94 454.54 768.86
  C 455.11 768.79 455.67 768.50 456.22 767.97"
/>
<path stroke="#af9c85" vector-effect="non-scaling-stroke" d="
  M 456.22 767.97
  L 464.12 765.48"
/>
<path stroke="#c0b09a" vector-effect="non-scaling-stroke" d="
  M 322.74 785.73
  C 323.57 786.05 324.08 786.02 324.29 785.64
  C 324.63 785.02 324.27 784.24 323.58 784.09
  C 322.20 783.80 320.80 783.62 319.38 783.55"
/>
<path stroke="#d8bd9b" vector-effect="non-scaling-stroke" d="
  M 447.06 785.80
  C 446.30 785.25 445.71 784.60 445.28 783.85"
/>
<path stroke="#ddcdb6" vector-effect="non-scaling-stroke" d="
  M 445.28 783.85
  C 446.49 782.54 446.56 781.31 445.48 780.15"
/>
<path stroke="#d8bd9b" vector-effect="non-scaling-stroke" d="
  M 445.48 780.15
  C 446.07 779.57 446.72 779.13 447.45 778.84
  C 447.78 778.70 447.99 778.37 447.96 778.01
  L 447.82 776.44
  C 447.80 776.18 447.50 776.03 447.27 776.18
  C 446.18 776.90 445.46 777.91 445.09 779.22
  C 445.07 779.31 444.94 779.29 444.93 779.20
  L 444.84 778.19
  C 444.81 777.87 444.40 777.75 444.20 778.01
  L 443.79 778.56"
/>
<path stroke="#b1997a" vector-effect="non-scaling-stroke" d="
  M 443.79 778.56
  L 439.71 786.00
  C 439.66 786.07 439.57 786.10 439.49 786.07
  L 439.48 786.07
  C 439.38 786.03 439.32 785.91 439.36 785.81
  L 443.57 774.65
  C 443.62 774.51 443.57 774.36 443.44 774.29
  C 443.32 774.21 443.15 774.24 443.06 774.35
  C 440.55 777.30 438.31 780.72 436.36 784.59
  C 435.41 786.48 434.23 787.25 432.84 786.92"
/>
<path stroke="#b1997a" vector-effect="non-scaling-stroke" d="
  M 429.28 774.89
  C 427.18 775.28 425.29 776.20 423.62 777.65
  C 423.41 777.84 423.07 777.74 422.99 777.47
  C 422.68 776.45 421.98 775.51 420.87 774.66
  C 420.56 774.42 420.10 774.55 419.96 774.91
  L 418.76 778.12
  C 418.70 778.27 418.54 778.36 418.38 778.33
  C 418.22 778.30 418.10 778.15 418.11 777.99
  L 418.30 773.43"
/>
<path stroke="#bba88e" vector-effect="non-scaling-stroke" d="
  M 443.79 778.56
  L 443.28 780.71"
/>
<path stroke="#b1997a" vector-effect="non-scaling-stroke" d="
  M 443.28 780.71
  L 441.81 785.56"
/>
<path stroke="#bba88e" vector-effect="non-scaling-stroke" d="
  M 441.81 785.56
  C 441.38 785.85 441.09 786.13 440.92 786.40
  C 440.76 786.67 440.90 787.01 441.20 787.10
  C 442.13 787.38 443.23 787.32 444.50 786.93"
/>
<path stroke="#e7dcca" vector-effect="non-scaling-stroke" d="
  M 445.48 780.15
  C 445.15 781.36 445.08 782.60 445.28 783.85"
/>
<path stroke="#d8bd9b" vector-effect="non-scaling-stroke" d="
  M 441.81 785.56
  C 442.65 784.07 443.14 782.45 443.28 780.71"
/>
<path stroke="#d8ba94" vector-effect="non-scaling-stroke" d="
  M 211.45 290.90
  C 211.46 291.45 212.19 291.62 212.44 291.13
  C 214.37 287.27 216.37 283.41 220.05 280.74
  C 225.12 277.07 229.22 274.76 232.34 273.79
  C 237.53 272.17 242.83 270.34 248.26 268.30
  C 252.27 266.79 256.36 265.90 260.41 264.61
  C 265.35 263.04 273.05 262.71 277.14 259.37
  C 277.52 259.06 277.39 258.44 276.91 258.32
  C 276.24 258.14 275.49 258.14 274.68 258.32
  C 268.85 259.59 261.40 261.21 252.32 263.16
  C 243.31 265.09 234.06 268.64 224.56 273.80
  C 218.38 277.15 211.36 283.13 211.45 290.90"
/>
<path stroke="#e7dcca" vector-effect="non-scaling-stroke" d="
  M 440.65 286.32
  C 450.65 285.62 460.34 284.93 468.76 278.77
  C 469.27 278.40 468.98 277.60 468.35 277.63
  C 465.76 277.76 462.00 278.08 459.27 278.68
  C 453.21 280.00 447.12 280.71 441.00 280.81
  C 440.87 280.82 440.76 280.72 440.75 280.59
  L 440.75 280.57
  C 440.74 280.42 440.84 280.29 440.99 280.27
  C 447.56 279.40 453.96 278.03 460.20 276.16
  C 463.18 275.27 465.92 273.66 468.28 271.68
  C 468.75 271.29 468.43 270.53 467.82 270.59
  L 454.04 271.82
  C 454.02 271.82 454.01 271.81 454.01 271.80
  L 453.95 271.56
  C 453.92 271.42 454.00 271.29 454.13 271.25
  C 461.18 269.24 467.79 266.44 473.94 262.83
  C 474.22 262.67 474.22 262.26 473.93 262.11
  C 469.17 259.64 464.56 258.21 460.09 257.80
  C 450.78 256.94 442.06 256.64 433.91 260.16
  C 428.90 262.32 426.41 264.85 423.07 268.50
  C 422.10 269.55 420.98 270.45 419.74 271.16
  C 411.41 275.90 406.65 278.60 405.46 279.27
  C 404.61 279.74 404.16 280.06 404.12 280.21
  C 403.91 280.97 404.57 281.68 405.34 281.54
  C 410.55 280.55 418.87 278.33 425.23 278.60
  C 425.48 278.61 425.54 278.96 425.31 279.05
  C 424.04 279.55 422.61 279.95 421.00 280.25
  C 414.79 281.42 408.36 282.47 401.69 283.38
  C 393.96 284.44 387.30 286.11 380.66 286.33
  C 379.47 286.38 378.51 286.29 377.77 286.08
  C 377.47 285.99 377.40 285.60 377.65 285.41
  C 382.97 281.49 389.53 279.62 397.77 276.80
  C 400.17 275.98 402.86 273.88 405.83 270.51
  C 406.01 270.30 406.12 270.03 406.15 269.75
  L 406.42 266.54
  C 406.43 266.36 406.40 266.19 406.32 266.03
  C 403.43 260.21 399.44 259.27 393.09 257.93
  C 387.78 256.81 380.69 256.97 375.53 257.20
  C 372.01 257.36 368.53 259.00 365.10 262.11
  C 364.18 262.95 362.71 262.66 362.17 261.53
  C 362.12 261.43 362.23 261.03 362.50 260.33
  C 362.76 259.65 362.24 258.92 361.51 258.94
  L 353.92 259.18
  C 353.25 259.20 352.60 259.35 351.99 259.63
  C 349.25 260.90 343.70 263.54 346.49 266.86
  C 347.04 267.51 346.86 268.49 346.13 268.91
  L 342.78 270.84
  C 342.52 270.99 342.61 271.40 342.92 271.42
  C 346.21 271.68 349.22 270.08 352.28 269.74
  C 352.42 269.73 355.24 269.69 360.75 269.62
  C 367.87 269.54 377.41 268.06 389.36 265.17
  C 389.53 265.13 390.41 264.82 392.00 264.24
  C 394.38 263.37 396.41 263.99 398.10 266.10
  C 398.66 266.79 398.63 267.79 398.04 268.46
  C 396.31 270.40 394.22 271.83 391.76 272.75
  C 383.97 275.65 377.95 277.89 369.74 279.28
  C 366.56 279.81 363.13 280.61 359.46 281.68
  C 358.40 281.99 357.29 282.62 356.14 283.57
  C 355.91 283.76 355.59 283.78 355.33 283.63
  C 353.62 282.62 352.41 282.08 351.72 281.99
  C 345.06 281.10 334.18 281.35 329.67 286.66
  C 325.88 291.11 330.94 294.09 334.63 295.90
  C 338.91 298.00 342.30 299.36 344.81 299.99
  C 352.92 302.00 361.87 303.57 372.09 304.13
  C 398.80 305.60 426.58 303.02 452.14 295.46
  C 456.49 294.17 460.24 292.06 463.40 289.13
  C 463.73 288.83 463.52 288.27 463.07 288.25
  C 456.10 287.90 448.66 291.20 442.68 292.19
  C 442.52 292.22 442.37 292.10 442.36 291.94
  L 442.32 291.57
  C 442.31 291.40 442.41 291.24 442.57 291.19
  L 446.66 289.90
  C 447.41 289.66 447.39 288.59 446.63 288.39
  L 440.61 286.78
  C 440.50 286.75 440.43 286.65 440.44 286.53
  C 440.45 286.42 440.54 286.33 440.65 286.32"
/>
<path stroke="#e7dcca" vector-effect="non-scaling-stroke" d="
  M 333.05 277.12
  C 320.92 273.98 306.34 276.64 294.36 280.99
  C 292.27 281.74 290.31 282.62 288.48 283.63
  C 283.25 286.50 273.95 290.87 278.37 298.59
  C 279.52 300.61 281.62 302.31 284.65 303.70
  C 303.45 312.33 321.57 314.89 344.92 317.87
  C 349.05 318.40 353.92 318.71 359.51 318.80
  C 377.98 319.13 395.69 318.69 412.64 317.49
  C 430.75 316.22 446.59 312.97 464.48 308.55
  C 470.25 307.12 475.43 305.17 480.04 302.68
  C 480.21 302.59 480.28 302.39 480.21 302.22
  C 480.14 302.04 479.95 301.94 479.77 301.98
  C 475.57 302.90 472.00 303.80 469.06 304.67
  C 460.21 307.30 450.16 309.35 438.92 310.81
  C 435.79 311.22 432.79 311.41 429.92 311.40
  C 429.78 311.40 429.67 311.30 429.66 311.17
  L 429.66 311.16
  C 429.65 311.04 429.74 310.94 429.86 310.92
  C 436.65 310.01 444.80 308.51 454.32 306.40
  C 466.07 303.81 476.37 300.51 485.21 296.50
  C 488.10 295.19 490.51 293.24 492.42 290.67
  C 492.89 290.03 492.74 289.13 492.08 288.70
  C 489.00 286.65 485.57 285.80 481.78 286.16
  C 481.11 286.22 480.81 287.04 481.29 287.52
  L 482.96 289.19
  C 483.22 289.44 483.21 289.85 482.95 290.10
  C 481.60 291.35 480.56 292.06 479.84 292.24
  C 474.30 293.62 466.29 294.61 459.25 296.55
  C 440.42 301.75 421.70 305.27 401.99 305.95
  C 392.29 306.28 384.48 306.40 378.57 306.29
  C 371.95 306.17 363.42 305.38 352.97 303.92
  C 340.82 302.22 329.52 298.23 319.05 291.94
  C 318.49 291.61 318.39 290.83 318.86 290.36
  L 325.82 283.40
  C 326.34 282.88 326.02 282.00 325.29 281.92
  C 319.03 281.29 312.45 281.88 305.54 283.69
  C 305.32 283.75 305.09 283.62 305.03 283.40
  C 304.96 283.15 305.07 282.96 305.36 282.83
  C 314.23 279.11 323.06 278.77 332.88 278.58
  C 333.25 278.57 333.56 278.29 333.60 277.92
  C 333.64 277.56 333.41 277.21 333.05 277.12"
/>
<path stroke="#ece4d6" vector-effect="non-scaling-stroke" d="
  M 381.72 295.39
  L 375.52 293.73
  C 374.90 293.56 374.92 292.67 375.55 292.54
  C 387.72 289.93 398.70 289.01 413.48 287.99
  C 414.75 287.90 416.56 287.47 418.91 286.70
  C 419.19 286.61 419.35 286.33 419.30 286.04
  C 419.25 285.76 418.99 285.55 418.70 285.57
  C 406.05 286.23 391.85 288.11 375.17 290.28
  C 369.88 290.98 363.05 290.13 359.15 290.15
  C 358.95 290.15 358.88 290.42 359.06 290.51
  C 363.10 292.52 367.09 294.07 371.02 295.16
  C 373.02 295.71 376.51 296.03 381.50 296.12
  C 381.64 296.12 381.77 296.03 381.81 295.89
  L 381.87 295.64
  C 381.90 295.53 381.83 295.42 381.72 295.39"
/>
<path stroke="#816340" vector-effect="non-scaling-stroke" d="
  M 493.1323 752.0376
  C 493.04 751.71 486.64 753.23 478.8349 755.4228
  C 471.03 757.62 464.78 759.66 464.8677 759.9824
  C 464.96 760.31 471.36 758.79 479.1651 756.5972
  C 486.97 754.40 493.22 752.36 493.1323 752.0376"
/>
<path stroke="#7c562b" vector-effect="non-scaling-stroke" d="
  M 472.53 761.50
  L 472.40 760.81
  C 472.38 760.71 472.28 760.63 472.17 760.65
  L 465.43 761.88
  C 460.74 762.73 456.97 763.62 457.02 763.86
  L 457.05 764.06
  C 457.10 764.30 460.94 763.81 465.63 762.96
  L 472.37 761.74
  C 472.47 761.72 472.55 761.61 472.53 761.50"
/>
<path stroke="#c0b7a9" vector-effect="non-scaling-stroke" d="
  M 493.97 766.34
  C 493.78 766.43 493.63 766.58 493.52 766.77
  C 493.41 766.94 493.40 767.10 493.48 767.24
  C 493.57 767.39 493.71 767.47 493.91 767.50"
/>
<path stroke="#ddcdb6" vector-effect="non-scaling-stroke" d="
  M 493.91 767.50
  L 495.28 767.92
  C 495.76 768.07 495.87 768.69 495.47 768.99
  L 488.28 774.39
  C 488.21 774.44 488.20 774.54 488.25 774.61
  L 488.44 774.86
  C 488.56 775.02 488.78 775.07 488.95 774.97
  C 497.46 770.36 502.20 767.76 503.19 767.17
  C 505.84 765.60 507.99 763.72 509.64 761.55
  C 510.02 761.05 509.70 760.32 509.07 760.28
  C 502.27 759.83 495.62 761.40 488.95 762.61
  C 486.50 763.05 483.73 762.83 481.10 763.32
  C 480.89 763.36 480.86 763.64 481.06 763.72
  C 483.98 764.85 489.80 763.93 492.96 763.30
  C 493.86 763.12 494.75 763.65 495.03 764.53
  C 495.12 764.84 494.77 765.44 493.97 766.34"
/>
<path stroke="#b1997a" vector-effect="non-scaling-stroke" d="
  M 493.91 767.50
  C 496.29 767.63 497.83 766.90 498.52 765.31
  C 498.91 764.42 497.88 763.58 497.08 764.14
  L 493.97 766.34"
/>
<path stroke="#af9a7f" vector-effect="non-scaling-stroke" d="
  M 447.7800 789.2988
  C 447.78 788.65 447.05 788.13 446.1618 788.1400
  C 445.27 788.15 444.56 788.68 444.5600 789.3212
  C 444.56 789.97 445.29 790.49 446.1782 790.4800
  C 447.07 790.47 447.78 789.94 447.7800 789.2988"
/>
<path stroke="#88755e" vector-effect="non-scaling-stroke" d="
  M 398.73 777.89
  L 377.71 778.03
  C 377.63 778.03 377.57 778.10 377.57 778.18
  L 377.57 778.26
  C 377.57 779.00 382.28 779.56 388.09 779.52
  L 388.39 779.52
  C 394.19 779.48 398.89 778.85 398.89 778.12
  L 398.89 778.04
  C 398.88 777.95 398.82 777.89 398.73 777.89"
/>
</g>
<path fill="#ceae87" d="
  M 445.53 242.72
  C 439.46 244.82 433.29 244.24 427.98 244.07
  C 424.37 243.96 420.96 244.07 417.75 244.40
  C 405.20 245.68 391.77 244.79 378.70 245.95
  C 370.04 246.72 361.46 246.89 352.95 246.47
  C 346.23 246.14 339.39 248.04 332.41 248.60
  C 325.05 249.19 319.08 249.75 314.49 250.29
  C 311.13 250.68 308.04 251.72 305.23 253.39
  C 304.90 253.59 305.04 254.09 305.42 254.08
  C 305.96 254.07 311.52 253.76 322.10 253.15
  C 325.48 252.96 328.58 253.43 331.40 254.57
  C 331.85 254.76 332.00 255.07 331.85 255.50
  C 331.77 255.73 331.61 255.86 331.38 255.91
  C 325.43 257.08 317.67 258.21 308.12 259.30
  C 299.86 260.24 293.35 261.65 286.22 262.57
  C 282.79 263.02 278.51 263.82 273.39 264.98
  C 264.26 267.04 256.52 268.53 248.78 272.28
  C 241.48 275.81 234.68 279.50 228.38 283.37
  C 226.45 284.56 224.67 286.17 223.06 288.20
  C 219.03 293.30 220.72 298.29 222.98 303.62
  C 220.26 302.13 217.60 300.58 214.99 298.98
  C 212.57 297.50 212.01 296.32 211.30 293.86
  C 210.37 290.64 210.47 287.31 211.58 283.88
  C 211.62 283.74 211.54 283.60 211.40 283.56
  L 210.58 283.34
  C 210.44 283.30 210.28 283.37 210.22 283.50
  C 209.00 285.91 207.58 286.49 205.40 284.62
  C 215.49 271.95 231.27 266.18 246.91 261.16
  C 279.76 250.59 314.05 245.96 348.64 243.34
  C 380.77 240.90 413.34 241.19 445.53 242.72
  Z
  M 211.45 290.90
  C 211.46 291.45 212.19 291.62 212.44 291.13
  C 214.37 287.27 216.37 283.41 220.05 280.74
  C 225.12 277.07 229.22 274.76 232.34 273.79
  C 237.53 272.17 242.83 270.34 248.26 268.30
  C 252.27 266.79 256.36 265.90 260.41 264.61
  C 265.35 263.04 273.05 262.71 277.14 259.37
  C 277.52 259.06 277.39 258.44 276.91 258.32
  C 276.24 258.14 275.49 258.14 274.68 258.32
  C 268.85 259.59 261.40 261.21 252.32 263.16
  C 243.31 265.09 234.06 268.64 224.56 273.80
  C 218.38 277.15 211.36 283.13 211.45 290.90
  Z"
/>
<path fill="#e1c5a0" d="
  M 567.63 272.79
  C 568.71 275.98 569.12 278.55 568.86 280.50
  C 568.62 282.27 567.98 284.03 566.94 285.76
  C 566.13 287.12 564.88 288.51 563.19 289.93
  C 557.82 294.44 551.90 298.13 545.42 300.99
  C 537.59 304.54 529.45 307.32 521.00 309.34
  C 491.73 317.06 462.39 322.04 433.00 324.27
  C 424.87 324.88 414.24 325.54 401.10 326.25
  C 392.80 326.69 382.84 326.68 373.71 327.16
  C 382.92 325.20 390.51 323.97 396.48 323.46
  C 407.46 322.53 415.52 321.73 420.65 321.06
  C 436.06 319.07 454.70 314.94 476.55 308.66
  C 484.20 306.47 504.44 298.94 503.66 288.62
  C 503.20 282.53 497.05 277.47 492.17 273.96
  C 485.24 268.97 479.66 264.89 475.43 261.70
  C 475.15 261.49 474.85 261.31 474.52 261.17
  C 465.73 257.51 456.91 255.56 448.08 255.31
  C 437.71 255.02 431.34 257.03 422.96 260.59
  C 417.90 262.73 413.03 263.56 408.66 261.77
  C 405.63 260.52 402.06 259.05 397.93 257.36
  C 384.41 251.80 365.47 253.93 351.41 257.98
  C 335.27 262.63 325.83 265.62 314.25 266.61
  C 301.11 267.74 291.44 268.69 285.24 269.47
  C 269.96 271.41 253.98 277.26 245.25 289.69
  C 240.25 296.80 240.43 303.92 242.02 312.11
  L 227.24 306.84
  L 222.98 303.62
  C 220.72 298.29 219.03 293.30 223.06 288.20
  C 224.67 286.17 226.45 284.56 228.38 283.37
  C 234.68 279.50 241.48 275.81 248.78 272.28
  C 256.52 268.53 264.26 267.04 273.39 264.98
  C 278.51 263.82 282.79 263.02 286.22 262.57
  C 293.35 261.65 299.86 260.24 308.12 259.30
  C 317.67 258.21 325.43 257.08 331.38 255.91
  C 331.61 255.86 331.77 255.73 331.85 255.50
  C 332.00 255.07 331.85 254.76 331.40 254.57
  C 328.58 253.43 325.48 252.96 322.10 253.15
  C 311.52 253.76 305.96 254.07 305.42 254.08
  C 305.04 254.09 304.90 253.59 305.23 253.39
  C 308.04 251.72 311.13 250.68 314.49 250.29
  C 319.08 249.75 325.05 249.19 332.41 248.60
  C 339.39 248.04 346.23 246.14 352.95 246.47
  C 361.46 246.89 370.04 246.72 378.70 245.95
  C 391.77 244.79 405.20 245.68 417.75 244.40
  C 420.96 244.07 424.37 243.96 427.98 244.07
  C 433.29 244.24 439.46 244.82 445.53 242.72
  C 469.20 244.03 492.63 246.95 515.80 251.50
  C 527.77 253.85 539.39 257.30 550.68 261.83
  C 557.29 264.49 562.94 268.14 567.63 272.79
  Z"
/>
<path fill="#e2ccaf" d="
  M 373.71 327.16
  C 369.30 327.17 364.89 327.16 360.48 327.15
  C 344.25 327.10 326.73 325.14 313.97 327.43
  C 313.82 327.46 313.71 327.59 313.71 327.75
  C 313.71 327.90 313.82 328.03 313.97 328.06
  C 317.57 328.68 327.36 329.87 322.41 335.89
  C 322.22 336.12 321.92 336.25 321.63 336.22
  L 301.11 334.49
  C 300.90 334.47 300.80 334.73 300.96 334.87
  C 306.97 339.82 312.10 344.69 316.36 349.48
  C 324.96 359.17 327.68 369.26 327.92 381.97
  C 327.93 382.23 327.70 382.44 327.45 382.41
  L 301.82 379.94
  L 289.17 378.02
  C 290.16 367.18 286.95 357.43 279.52 348.77
  C 274.89 343.38 269.45 336.55 263.20 328.30
  C 274.09 330.69 285.29 331.76 296.37 333.49
  C 298.03 333.75 300.04 333.88 302.39 333.89
  C 302.58 333.89 302.66 333.66 302.52 333.53
  C 299.32 330.74 293.20 329.80 288.85 329.00
  C 288.70 328.97 288.60 328.83 288.61 328.68
  L 288.64 328.35
  C 288.66 328.15 288.83 328.00 289.03 328.02
  L 309.17 329.72
  C 309.42 329.74 309.64 329.55 309.66 329.30
  L 309.69 329.01
  C 309.70 328.83 309.57 328.67 309.40 328.65
  C 301.62 327.47 295.15 325.39 288.32 324.36
  C 285.89 323.99 282.34 323.05 277.66 321.54
  C 268.86 318.70 257.18 316.95 251.01 315.00
  C 247.98 314.05 244.99 313.08 242.02 312.11
  C 240.43 303.92 240.25 296.80 245.25 289.69
  C 253.98 277.26 269.96 271.41 285.24 269.47
  C 291.44 268.69 301.11 267.74 314.25 266.61
  C 325.83 265.62 335.27 262.63 351.41 257.98
  C 365.47 253.93 384.41 251.80 397.93 257.36
  C 402.06 259.05 405.63 260.52 408.66 261.77
  C 413.03 263.56 417.90 262.73 422.96 260.59
  C 431.34 257.03 437.71 255.02 448.08 255.31
  C 456.91 255.56 465.73 257.51 474.52 261.17
  C 474.85 261.31 475.15 261.49 475.43 261.70
  C 479.66 264.89 485.24 268.97 492.17 273.96
  C 497.05 277.47 503.20 282.53 503.66 288.62
  C 504.44 298.94 484.20 306.47 476.55 308.66
  C 454.70 314.94 436.06 319.07 420.65 321.06
  C 415.52 321.73 407.46 322.53 396.48 323.46
  C 390.51 323.97 382.92 325.20 373.71 327.16
  Z
  M 440.65 286.32
  C 450.65 285.62 460.34 284.93 468.76 278.77
  C 469.27 278.40 468.98 277.60 468.35 277.63
  C 465.76 277.76 462.00 278.08 459.27 278.68
  C 453.21 280.00 447.12 280.71 441.00 280.81
  C 440.87 280.82 440.76 280.72 440.75 280.59
  L 440.75 280.57
  C 440.74 280.42 440.84 280.29 440.99 280.27
  C 447.56 279.40 453.96 278.03 460.20 276.16
  C 463.18 275.27 465.92 273.66 468.28 271.68
  C 468.75 271.29 468.43 270.53 467.82 270.59
  L 454.04 271.82
  C 454.02 271.82 454.01 271.81 454.01 271.80
  L 453.95 271.56
  C 453.92 271.42 454.00 271.29 454.13 271.25
  C 461.18 269.24 467.79 266.44 473.94 262.83
  C 474.22 262.67 474.22 262.26 473.93 262.11
  C 469.17 259.64 464.56 258.21 460.09 257.80
  C 450.78 256.94 442.06 256.64 433.91 260.16
  C 428.90 262.32 426.41 264.85 423.07 268.50
  C 422.10 269.55 420.98 270.45 419.74 271.16
  C 411.41 275.90 406.65 278.60 405.46 279.27
  C 404.61 279.74 404.16 280.06 404.12 280.21
  C 403.91 280.97 404.57 281.68 405.34 281.54
  C 410.55 280.55 418.87 278.33 425.23 278.60
  C 425.48 278.61 425.54 278.96 425.31 279.05
  C 424.04 279.55 422.61 279.95 421.00 280.25
  C 414.79 281.42 408.36 282.47 401.69 283.38
  C 393.96 284.44 387.30 286.11 380.66 286.33
  C 379.47 286.38 378.51 286.29 377.77 286.08
  C 377.47 285.99 377.40 285.60 377.65 285.41
  C 382.97 281.49 389.53 279.62 397.77 276.80
  C 400.17 275.98 402.86 273.88 405.83 270.51
  C 406.01 270.30 406.12 270.03 406.15 269.75
  L 406.42 266.54
  C 406.43 266.36 406.40 266.19 406.32 266.03
  C 403.43 260.21 399.44 259.27 393.09 257.93
  C 387.78 256.81 380.69 256.97 375.53 257.20
  C 372.01 257.36 368.53 259.00 365.10 262.11
  C 364.18 262.95 362.71 262.66 362.17 261.53
  C 362.12 261.43 362.23 261.03 362.50 260.33
  C 362.76 259.65 362.24 258.92 361.51 258.94
  L 353.92 259.18
  C 353.25 259.20 352.60 259.35 351.99 259.63
  C 349.25 260.90 343.70 263.54 346.49 266.86
  C 347.04 267.51 346.86 268.49 346.13 268.91
  L 342.78 270.84
  C 342.52 270.99 342.61 271.40 342.92 271.42
  C 346.21 271.68 349.22 270.08 352.28 269.74
  C 352.42 269.73 355.24 269.69 360.75 269.62
  C 367.87 269.54 377.41 268.06 389.36 265.17
  C 389.53 265.13 390.41 264.82 392.00 264.24
  C 394.38 263.37 396.41 263.99 398.10 266.10
  C 398.66 266.79 398.63 267.79 398.04 268.46
  C 396.31 270.40 394.22 271.83 391.76 272.75
  C 383.97 275.65 377.95 277.89 369.74 279.28
  C 366.56 279.81 363.13 280.61 359.46 281.68
  C 358.40 281.99 357.29 282.62 356.14 283.57
  C 355.91 283.76 355.59 283.78 355.33 283.63
  C 353.62 282.62 352.41 282.08 351.72 281.99
  C 345.06 281.10 334.18 281.35 329.67 286.66
  C 325.88 291.11 330.94 294.09 334.63 295.90
  C 338.91 298.00 342.30 299.36 344.81 299.99
  C 352.92 302.00 361.87 303.57 372.09 304.13
  C 398.80 305.60 426.58 303.02 452.14 295.46
  C 456.49 294.17 460.24 292.06 463.40 289.13
  C 463.73 288.83 463.52 288.27 463.07 288.25
  C 456.10 287.90 448.66 291.20 442.68 292.19
  C 442.52 292.22 442.37 292.10 442.36 291.94
  L 442.32 291.57
  C 442.31 291.40 442.41 291.24 442.57 291.19
  L 446.66 289.90
  C 447.41 289.66 447.39 288.59 446.63 288.39
  L 440.61 286.78
  C 440.50 286.75 440.43 286.65 440.44 286.53
  C 440.45 286.42 440.54 286.33 440.65 286.32
  Z
  M 333.05 277.12
  C 320.92 273.98 306.34 276.64 294.36 280.99
  C 292.27 281.74 290.31 282.62 288.48 283.63
  C 283.25 286.50 273.95 290.87 278.37 298.59
  C 279.52 300.61 281.62 302.31 284.65 303.70
  C 303.45 312.33 321.57 314.89 344.92 317.87
  C 349.05 318.40 353.92 318.71 359.51 318.80
  C 377.98 319.13 395.69 318.69 412.64 317.49
  C 430.75 316.22 446.59 312.97 464.48 308.55
  C 470.25 307.12 475.43 305.17 480.04 302.68
  C 480.21 302.59 480.28 302.39 480.21 302.22
  C 480.14 302.04 479.95 301.94 479.77 301.98
  C 475.57 302.90 472.00 303.80 469.06 304.67
  C 460.21 307.30 450.16 309.35 438.92 310.81
  C 435.79 311.22 432.79 311.41 429.92 311.40
  C 429.78 311.40 429.67 311.30 429.66 311.17
  L 429.66 311.16
  C 429.65 311.04 429.74 310.94 429.86 310.92
  C 436.65 310.01 444.80 308.51 454.32 306.40
  C 466.07 303.81 476.37 300.51 485.21 296.50
  C 488.10 295.19 490.51 293.24 492.42 290.67
  C 492.89 290.03 492.74 289.13 492.08 288.70
  C 489.00 286.65 485.57 285.80 481.78 286.16
  C 481.11 286.22 480.81 287.04 481.29 287.52
  L 482.96 289.19
  C 483.22 289.44 483.21 289.85 482.95 290.10
  C 481.60 291.35 480.56 292.06 479.84 292.24
  C 474.30 293.62 466.29 294.61 459.25 296.55
  C 440.42 301.75 421.70 305.27 401.99 305.95
  C 392.29 306.28 384.48 306.40 378.57 306.29
  C 371.95 306.17 363.42 305.38 352.97 303.92
  C 340.82 302.22 329.52 298.23 319.05 291.94
  C 318.49 291.61 318.39 290.83 318.86 290.36
  L 325.82 283.40
  C 326.34 282.88 326.02 282.00 325.29 281.92
  C 319.03 281.29 312.45 281.88 305.54 283.69
  C 305.32 283.75 305.09 283.62 305.03 283.40
  C 304.96 283.15 305.07 282.96 305.36 282.83
  C 314.23 279.11 323.06 278.77 332.88 278.58
  C 333.25 278.57 333.56 278.29 333.60 277.92
  C 333.64 277.56 333.41 277.21 333.05 277.12
  Z"
/>
<path fill="#e1c5a0" d="
  M 211.45 290.90
  C 211.36 283.13 218.38 277.15 224.56 273.80
  C 234.06 268.64 243.31 265.09 252.32 263.16
  C 261.40 261.21 268.85 259.59 274.68 258.32
  C 275.49 258.14 276.24 258.14 276.91 258.32
  C 277.39 258.44 277.52 259.06 277.14 259.37
  C 273.05 262.71 265.35 263.04 260.41 264.61
  C 256.36 265.90 252.27 266.79 248.26 268.30
  C 242.83 270.34 237.53 272.17 232.34 273.79
  C 229.22 274.76 225.12 277.07 220.05 280.74
  C 216.37 283.41 214.37 287.27 212.44 291.13
  C 212.19 291.62 211.46 291.45 211.45 290.90
  Z"
/>
<path fill="#ebebe5" d="
  M 440.61 286.78
  L 446.63 288.39
  C 447.39 288.59 447.41 289.66 446.66 289.90
  L 442.57 291.19
  C 442.41 291.24 442.31 291.40 442.32 291.57
  L 442.36 291.94
  C 442.37 292.10 442.52 292.22 442.68 292.19
  C 448.66 291.20 456.10 287.90 463.07 288.25
  C 463.52 288.27 463.73 288.83 463.40 289.13
  C 460.24 292.06 456.49 294.17 452.14 295.46
  C 426.58 303.02 398.80 305.60 372.09 304.13
  C 361.87 303.57 352.92 302.00 344.81 299.99
  C 342.30 299.36 338.91 298.00 334.63 295.90
  C 330.94 294.09 325.88 291.11 329.67 286.66
  C 334.18 281.35 345.06 281.10 351.72 281.99
  C 352.41 282.08 353.62 282.62 355.33 283.63
  C 355.59 283.78 355.91 283.76 356.14 283.57
  C 357.29 282.62 358.40 281.99 359.46 281.68
  C 363.13 280.61 366.56 279.81 369.74 279.28
  C 377.95 277.89 383.97 275.65 391.76 272.75
  C 394.22 271.83 396.31 270.40 398.04 268.46
  C 398.63 267.79 398.66 266.79 398.10 266.10
  C 396.41 263.99 394.38 263.37 392.00 264.24
  C 390.41 264.82 389.53 265.13 389.36 265.17
  C 377.41 268.06 367.87 269.54 360.75 269.62
  C 355.24 269.69 352.42 269.73 352.28 269.74
  C 349.22 270.08 346.21 271.68 342.92 271.42
  C 342.61 271.40 342.52 270.99 342.78 270.84
  L 346.13 268.91
  C 346.86 268.49 347.04 267.51 346.49 266.86
  C 343.70 263.54 349.25 260.90 351.99 259.63
  C 352.60 259.35 353.25 259.20 353.92 259.18
  L 361.51 258.94
  C 362.24 258.92 362.76 259.65 362.50 260.33
  C 362.23 261.03 362.12 261.43 362.17 261.53
  C 362.71 262.66 364.18 262.95 365.10 262.11
  C 368.53 259.00 372.01 257.36 375.53 257.20
  C 380.69 256.97 387.78 256.81 393.09 257.93
  C 399.44 259.27 403.43 260.21 406.32 266.03
  C 406.40 266.19 406.43 266.36 406.42 266.54
  L 406.15 269.75
  C 406.12 270.03 406.01 270.30 405.83 270.51
  C 402.86 273.88 400.17 275.98 397.77 276.80
  C 389.53 279.62 382.97 281.49 377.65 285.41
  C 377.40 285.60 377.47 285.99 377.77 286.08
  C 378.51 286.29 379.47 286.38 380.66 286.33
  C 387.30 286.11 393.96 284.44 401.69 283.38
  C 408.36 282.47 414.79 281.42 421.00 280.25
  C 422.61 279.95 424.04 279.55 425.31 279.05
  C 425.54 278.96 425.48 278.61 425.23 278.60
  C 418.87 278.33 410.55 280.55 405.34 281.54
  C 404.57 281.68 403.91 280.97 404.12 280.21
  C 404.16 280.06 404.61 279.74 405.46 279.27
  C 406.65 278.60 411.41 275.90 419.74 271.16
  C 420.98 270.45 422.10 269.55 423.07 268.50
  C 426.41 264.85 428.90 262.32 433.91 260.16
  C 442.06 256.64 450.78 256.94 460.09 257.80
  C 464.56 258.21 469.17 259.64 473.93 262.11
  C 474.22 262.26 474.22 262.67 473.94 262.83
  C 467.79 266.44 461.18 269.24 454.13 271.25
  C 454.00 271.29 453.92 271.42 453.95 271.56
  L 454.01 271.80
  C 454.01 271.81 454.02 271.82 454.04 271.82
  L 467.82 270.59
  C 468.43 270.53 468.75 271.29 468.28 271.68
  C 465.92 273.66 463.18 275.27 460.20 276.16
  C 453.96 278.03 447.56 279.40 440.99 280.27
  C 440.84 280.29 440.74 280.42 440.75 280.57
  L 440.75 280.59
  C 440.76 280.72 440.87 280.82 441.00 280.81
  C 447.12 280.71 453.21 280.00 459.27 278.68
  C 462.00 278.08 465.76 277.76 468.35 277.63
  C 468.98 277.60 469.27 278.40 468.76 278.77
  C 460.34 284.93 450.65 285.62 440.65 286.32
  C 440.54 286.33 440.45 286.42 440.44 286.53
  C 440.43 286.65 440.50 286.75 440.61 286.78
  Z
  M 381.72 295.39
  L 375.52 293.73
  C 374.90 293.56 374.92 292.67 375.55 292.54
  C 387.72 289.93 398.70 289.01 413.48 287.99
  C 414.75 287.90 416.56 287.47 418.91 286.70
  C 419.19 286.61 419.35 286.33 419.30 286.04
  C 419.25 285.76 418.99 285.55 418.70 285.57
  C 406.05 286.23 391.85 288.11 375.17 290.28
  C 369.88 290.98 363.05 290.13 359.15 290.15
  C 358.95 290.15 358.88 290.42 359.06 290.51
  C 363.10 292.52 367.09 294.07 371.02 295.16
  C 373.02 295.71 376.51 296.03 381.50 296.12
  C 381.64 296.12 381.77 296.03 381.81 295.89
  L 381.87 295.64
  C 381.90 295.53 381.83 295.42 381.72 295.39
  Z"
/>
<path fill="#94836c" d="
  M 573.25 292.00
  C 565.68 295.47 558.43 298.26 551.50 300.38
  C 549.66 300.94 547.63 301.14 545.42 300.99
  C 551.90 298.13 557.82 294.44 563.19 289.93
  C 564.88 288.51 566.13 287.12 566.94 285.76
  C 567.98 284.03 568.62 282.27 568.86 280.50
  C 569.12 278.55 568.71 275.98 567.63 272.79
  C 572.82 278.06 574.70 284.47 573.25 292.00
  Z"
/>
<path fill="#ebebe5" d="
  M 333.05 277.12
  C 333.41 277.21 333.64 277.56 333.60 277.92
  C 333.56 278.29 333.25 278.57 332.88 278.58
  C 323.06 278.77 314.23 279.11 305.36 282.83
  C 305.07 282.96 304.96 283.15 305.03 283.40
  C 305.09 283.62 305.32 283.75 305.54 283.69
  C 312.45 281.88 319.03 281.29 325.29 281.92
  C 326.02 282.00 326.34 282.88 325.82 283.40
  L 318.86 290.36
  C 318.39 290.83 318.49 291.61 319.05 291.94
  C 329.52 298.23 340.82 302.22 352.97 303.92
  C 363.42 305.38 371.95 306.17 378.57 306.29
  C 384.48 306.40 392.29 306.28 401.99 305.95
  C 421.70 305.27 440.42 301.75 459.25 296.55
  C 466.29 294.61 474.30 293.62 479.84 292.24
  C 480.56 292.06 481.60 291.35 482.95 290.10
  C 483.21 289.85 483.22 289.44 482.96 289.19
  L 481.29 287.52
  C 480.81 287.04 481.11 286.22 481.78 286.16
  C 485.57 285.80 489.00 286.65 492.08 288.70
  C 492.74 289.13 492.89 290.03 492.42 290.67
  C 490.51 293.24 488.10 295.19 485.21 296.50
  C 476.37 300.51 466.07 303.81 454.32 306.40
  C 444.80 308.51 436.65 310.01 429.86 310.92
  C 429.74 310.94 429.65 311.04 429.66 311.16
  L 429.66 311.17
  C 429.67 311.30 429.78 311.40 429.92 311.40
  C 432.79 311.41 435.79 311.22 438.92 310.81
  C 450.16 309.35 460.21 307.30 469.06 304.67
  C 472.00 303.80 475.57 302.90 479.77 301.98
  C 479.95 301.94 480.14 302.04 480.21 302.22
  C 480.28 302.39 480.21 302.59 480.04 302.68
  C 475.43 305.17 470.25 307.12 464.48 308.55
  C 446.59 312.97 430.75 316.22 412.64 317.49
  C 395.69 318.69 377.98 319.13 359.51 318.80
  C 353.92 318.71 349.05 318.40 344.92 317.87
  C 321.57 314.89 303.45 312.33 284.65 303.70
  C 281.62 302.31 279.52 300.61 278.37 298.59
  C 273.95 290.87 283.25 286.50 288.48 283.63
  C 290.31 282.62 292.27 281.74 294.36 280.99
  C 306.34 276.64 320.92 273.98 333.05 277.12
  Z"
/>
<path fill="#94836c" d="
  M 222.98 303.62
  L 227.24 306.84
  C 220.01 304.10 213.51 300.31 207.74 295.46
  C 206.57 293.52 204.89 291.78 202.70 290.23
  L 205.40 284.62
  C 207.58 286.49 209.00 285.91 210.22 283.50
  C 210.28 283.37 210.44 283.30 210.58 283.34
  L 211.40 283.56
  C 211.54 283.60 211.62 283.74 211.58 283.88
  C 210.47 287.31 210.37 290.64 211.30 293.86
  C 212.01 296.32 212.57 297.50 214.99 298.98
  C 217.60 300.58 220.26 302.13 222.98 303.62
  Z"
/>
<path fill="#ecddc7" d="
  M 381.72 295.39
  C 381.83 295.42 381.90 295.53 381.87 295.64
  L 381.81 295.89
  C 381.77 296.03 381.64 296.12 381.50 296.12
  C 376.51 296.03 373.02 295.71 371.02 295.16
  C 367.09 294.07 363.10 292.52 359.06 290.51
  C 358.88 290.42 358.95 290.15 359.15 290.15
  C 363.05 290.13 369.88 290.98 375.17 290.28
  C 391.85 288.11 406.05 286.23 418.70 285.57
  C 418.99 285.55 419.25 285.76 419.30 286.04
  C 419.35 286.33 419.19 286.61 418.91 286.70
  C 416.56 287.47 414.75 287.90 413.48 287.99
  C 398.70 289.01 387.72 289.93 375.55 292.54
  C 374.92 292.67 374.90 293.56 375.52 293.73
  L 381.72 295.39
  Z"
/>
<path fill="#ecddc7" d="
  M 207.74 295.46
  C 206.07 299.29 206.15 302.99 207.98 306.56
  C 208.85 308.24 210.35 309.73 212.48 311.04
  C 217.77 314.28 223.67 317.04 230.17 319.32
  C 241.73 323.37 252.74 326.36 263.20 328.30
  C 269.45 336.55 274.89 343.38 279.52 348.77
  C 286.95 357.43 290.16 367.18 289.17 378.02
  C 276.90 376.03 264.69 373.52 252.54 370.47
  C 245.99 368.82 239.55 366.65 233.24 363.96
  L 223.92 359.57
  C 223.68 359.46 223.40 359.62 223.39 359.88
  C 222.72 370.66 224.09 381.79 224.57 392.64
  C 224.81 397.91 226.47 408.38 229.56 424.04
  L 230.58 433.96
  C 231.02 449.88 231.68 461.43 232.55 468.62
  C 234.20 482.19 235.82 495.75 237.41 509.32
  C 240.40 534.82 241.67 560.41 241.22 586.08
  C 238.78 568.01 236.31 549.97 233.81 531.96
  C 231.28 513.79 228.80 495.62 226.35 477.44
  C 217.38 410.82 211.35 364.76 208.27 339.25
  C 207.35 331.68 205.49 315.34 202.70 290.23
  C 204.89 291.78 206.57 293.52 207.74 295.46
  Z"
/>
<path fill="#a17947" d="
  M 573.25 292.00
  L 569.61 323.86
  C 567.16 322.12 564.74 320.49 562.36 318.98
  C 558.00 316.22 554.36 319.38 552.18 322.81
  C 548.84 328.08 546.22 333.36 544.32 338.65
  C 543.92 339.78 543.72 340.96 543.72 342.15
  L 543.78 359.29
  C 543.57 359.64 543.29 359.95 542.96 360.22
  L 538.74 361.36
  C 538.42 361.45 538.08 361.41 537.80 361.24
  C 524.61 353.52 511.35 347.29 495.56 350.13
  C 476.09 353.64 463.09 364.37 451.72 379.82
  L 411.15 383.52
  C 410.94 383.55 410.64 383.50 410.26 383.39
  C 418.46 374.06 423.59 364.37 418.92 352.13
  C 417.67 348.85 416.08 345.32 419.57 343.18
  C 421.78 341.82 424.78 340.74 428.55 339.93
  C 439.36 337.60 451.32 336.49 461.95 334.46
  C 477.66 331.46 486.15 329.86 487.40 329.67
  C 493.39 328.72 497.93 327.79 501.02 326.87
  C 507.32 324.99 515.46 322.55 522.79 321.99
  C 526.52 321.71 528.74 321.41 529.45 321.09
  C 533.34 319.33 536.76 317.92 539.69 316.86
  C 546.47 314.42 552.85 310.10 558.93 305.91
  C 562.57 303.80 565.88 301.05 568.87 297.66
  C 569.37 297.09 568.77 296.22 568.06 296.50
  C 561.46 299.05 555.56 303.05 548.24 304.77
  C 541.04 306.47 533.62 308.34 525.99 310.38
  C 523.66 311.00 521.99 310.65 521.00 309.34
  C 529.45 307.32 537.59 304.54 545.42 300.99
  C 547.63 301.14 549.66 300.94 551.50 300.38
  C 558.43 298.26 565.68 295.47 573.25 292.00
  Z"
/>
<path fill="#ebebe5" d="
  M 207.74 295.46
  C 213.51 300.31 220.01 304.10 227.24 306.84
  L 242.02 312.11
  C 244.99 313.08 247.98 314.05 251.01 315.00
  C 257.18 316.95 268.86 318.70 277.66 321.54
  C 282.34 323.05 285.89 323.99 288.32 324.36
  C 295.15 325.39 301.62 327.47 309.40 328.65
  C 309.57 328.67 309.70 328.83 309.69 329.01
  L 309.66 329.30
  C 309.64 329.55 309.42 329.74 309.17 329.72
  L 289.03 328.02
  C 288.83 328.00 288.66 328.15 288.64 328.35
  L 288.61 328.68
  C 288.60 328.83 288.70 328.97 288.85 329.00
  C 293.20 329.80 299.32 330.74 302.52 333.53
  C 302.66 333.66 302.58 333.89 302.39 333.89
  C 300.04 333.88 298.03 333.75 296.37 333.49
  C 285.29 331.76 274.09 330.69 263.20 328.30
  C 252.74 326.36 241.73 323.37 230.17 319.32
  C 223.67 317.04 217.77 314.28 212.48 311.04
  C 210.35 309.73 208.85 308.24 207.98 306.56
  C 206.15 302.99 206.07 299.29 207.74 295.46
  Z"
/>
<path fill="#ceae87" d="
  M 558.93 305.91
  C 552.95 308.70 546.79 311.95 540.84 314.00
  C 537.58 315.13 534.63 316.03 532.00 316.69
  C 524.47 318.58 517.96 320.93 510.47 322.36
  C 505.30 323.35 500.00 324.44 494.58 325.64
  C 491.38 326.34 486.09 326.72 478.71 326.79
  C 478.38 326.79 478.06 326.82 477.74 326.89
  C 473.92 327.68 468.98 328.68 462.93 329.88
  C 456.38 331.17 448.65 332.41 439.76 333.58
  C 435.83 334.10 429.17 334.68 419.76 335.33
  C 413.64 335.75 406.97 336.43 399.76 337.37
  C 392.53 338.30 380.20 338.15 368.68 339.07
  C 368.35 339.10 368.09 339.34 368.03 339.65
  C 366.92 345.33 366.95 350.13 368.12 354.05
  C 371.64 365.79 373.46 373.11 372.99 384.53
  L 368.28 384.43
  L 343.23 383.73
  C 342.82 383.71 342.49 384.05 342.51 384.46
  C 342.97 393.79 343.22 402.29 343.07 411.02
  C 342.67 434.97 342.57 449.12 342.76 453.48
  C 344.41 490.64 346.62 533.87 345.05 573.27
  C 344.89 577.36 344.23 586.75 343.07 601.46
  C 339.99 640.61 338.34 679.77 337.33 720.87
  C 337.08 730.78 338.38 739.12 339.91 749.31
  C 342.01 763.25 325.39 759.86 317.69 758.45
  C 316.22 758.18 304.34 755.67 282.04 750.90
  C 281.72 750.83 281.41 750.72 281.13 750.55
  C 274.69 746.78 268.55 742.50 262.72 737.70
  L 262.20 734.79
  L 265.90 738.30
  C 267.10 739.43 269.05 738.43 268.84 736.80
  C 268.39 733.23 267.77 729.23 266.98 724.80
  C 265.64 717.28 266.67 710.49 266.20 702.85
  C 265.72 695.10 265.84 685.55 265.02 676.85
  C 264.03 666.30 263.87 654.83 262.27 643.55
  C 261.65 639.16 261.22 635.10 260.97 631.37
  C 260.61 625.93 259.65 619.85 259.03 614.09
  C 259.99 606.00 261.25 598.01 262.80 590.12
  C 264.24 582.77 266.95 570.49 276.23 569.49
  C 278.64 569.23 283.05 570.04 285.52 569.15
  C 290.99 567.19 292.27 559.67 292.78 554.65
  C 293.29 549.56 293.53 544.68 293.48 540.01
  C 293.33 524.33 293.71 506.65 295.54 489.59
  C 297.45 471.85 298.46 454.92 298.33 436.97
  C 298.19 417.10 299.34 398.89 301.82 379.94
  L 327.45 382.41
  C 327.70 382.44 327.93 382.23 327.92 381.97
  C 327.68 369.26 324.96 359.17 316.36 349.48
  C 312.10 344.69 306.97 339.82 300.96 334.87
  C 300.80 334.73 300.90 334.47 301.11 334.49
  L 321.63 336.22
  C 321.92 336.25 322.22 336.12 322.41 335.89
  C 327.36 329.87 317.57 328.68 313.97 328.06
  C 313.82 328.03 313.71 327.90 313.71 327.75
  C 313.71 327.59 313.82 327.46 313.97 327.43
  C 326.73 325.14 344.25 327.10 360.48 327.15
  C 364.89 327.16 369.30 327.17 373.71 327.16
  C 382.84 326.68 392.80 326.69 401.10 326.25
  C 414.24 325.54 424.87 324.88 433.00 324.27
  C 462.39 322.04 491.73 317.06 521.00 309.34
  C 521.99 310.65 523.66 311.00 525.99 310.38
  C 533.62 308.34 541.04 306.47 548.24 304.77
  C 555.56 303.05 561.46 299.05 568.06 296.50
  C 568.77 296.22 569.37 297.09 568.87 297.66
  C 565.88 301.05 562.57 303.80 558.93 305.91
  Z"
/>
<path fill="#b58f61" d="
  M 558.93 305.91
  C 552.85 310.10 546.47 314.42 539.69 316.86
  C 536.76 317.92 533.34 319.33 529.45 321.09
  C 528.74 321.41 526.52 321.71 522.79 321.99
  C 515.46 322.55 507.32 324.99 501.02 326.87
  C 497.93 327.79 493.39 328.72 487.40 329.67
  C 486.15 329.86 477.66 331.46 461.95 334.46
  C 451.32 336.49 439.36 337.60 428.55 339.93
  C 424.78 340.74 421.78 341.82 419.57 343.18
  C 416.08 345.32 417.67 348.85 418.92 352.13
  C 423.59 364.37 418.46 374.06 410.26 383.39
  L 400.18 383.93
  L 372.99 384.53
  C 373.46 373.11 371.64 365.79 368.12 354.05
  C 366.95 350.13 366.92 345.33 368.03 339.65
  C 368.09 339.34 368.35 339.10 368.68 339.07
  C 380.20 338.15 392.53 338.30 399.76 337.37
  C 406.97 336.43 413.64 335.75 419.76 335.33
  C 429.17 334.68 435.83 334.10 439.76 333.58
  C 448.65 332.41 456.38 331.17 462.93 329.88
  C 468.98 328.68 473.92 327.68 477.74 326.89
  C 478.06 326.82 478.38 326.79 478.71 326.79
  C 486.09 326.72 491.38 326.34 494.58 325.64
  C 500.00 324.44 505.30 323.35 510.47 322.36
  C 517.96 320.93 524.47 318.58 532.00 316.69
  C 534.63 316.03 537.58 315.13 540.84 314.00
  C 546.79 311.95 552.95 308.70 558.93 305.91
  Z"
/>
<path fill="#966e3d" d="
  M 569.61 323.86
  L 563.94 375.73
  C 563.41 372.79 563.02 368.42 562.75 362.63
  C 562.46 356.36 560.67 346.28 560.60 338.16
  C 560.55 331.57 560.47 327.71 560.35 326.60
  C 560.32 326.33 560.22 326.08 560.05 325.88
  C 559.10 324.73 558.25 324.06 557.49 323.87
  C 557.13 323.78 556.75 323.91 556.53 324.21
  C 555.25 325.88 554.55 327.52 554.44 329.13
  C 553.99 335.20 554.14 343.06 554.89 352.72
  C 554.96 353.50 554.58 354.31 553.77 355.15
  C 553.47 355.46 553.10 355.70 552.70 355.86
  L 543.78 359.29
  L 543.72 342.15
  C 543.72 340.96 543.92 339.78 544.32 338.65
  C 546.22 333.36 548.84 328.08 552.18 322.81
  C 554.36 319.38 558.00 316.22 562.36 318.98
  C 564.74 320.49 567.16 322.12 569.61 323.86
  Z"
/>
<path fill="#724c24" d="
  M 563.94 375.73
  L 553.87 475.29
  C 552.48 461.14 551.33 446.97 550.43 432.78
  C 550.01 426.05 549.34 420.06 548.43 414.80
  C 547.34 408.58 547.82 402.21 548.09 397.49
  C 548.10 397.38 548.03 397.28 547.92 397.25
  L 547.60 397.17
  C 547.56 397.15 547.51 397.18 547.50 397.22
  L 546.21 403.99
  C 543.41 412.95 541.12 419.36 536.50 426.93
  C 515.67 444.08 504.96 419.24 499.27 404.08
  C 496.33 396.23 494.95 387.21 495.14 377.00
  C 495.15 376.39 494.82 376.11 494.15 376.14
  C 493.80 376.16 493.51 376.43 493.48 376.78
  C 493.21 379.38 493.07 382.15 493.06 385.10
  C 492.96 403.48 492.64 419.27 492.78 438.97
  C 492.93 459.34 493.10 479.69 493.27 500.02
  C 493.44 519.49 495.41 539.26 499.18 559.31
  C 503.45 582.06 508.36 605.38 513.90 629.26
  C 513.94 629.44 514.19 629.45 514.26 629.28
  C 517.05 622.05 519.05 614.66 520.24 607.12
  C 520.25 607.08 520.28 607.06 520.31 607.06
  C 520.35 607.06 520.38 607.08 520.39 607.12
  C 522.30 618.63 523.33 630.66 523.48 643.20
  C 523.51 645.19 523.50 658.13 523.47 682.03
  C 523.46 686.78 523.85 695.14 524.64 707.13
  C 525.00 712.72 524.27 718.74 522.44 725.21
  C 522.35 725.52 521.91 725.52 521.81 725.21
  L 520.34 720.58
  C 520.26 720.33 519.98 720.21 519.75 720.33
  C 500.30 730.39 479.49 738.07 457.30 743.36
  C 449.67 745.18 436.69 746.89 434.42 736.76
  C 433.77 733.87 433.54 731.34 433.74 729.17
  C 434.94 716.40 435.70 704.09 436.03 692.23
  C 436.53 674.01 437.51 665.97 439.46 645.15
  C 439.69 642.70 439.88 639.72 440.03 636.21
  C 440.73 620.22 440.96 601.88 442.29 585.54
  C 443.22 574.11 444.43 560.09 445.92 543.47
  C 447.90 521.49 448.30 498.63 448.99 478.52
  C 449.34 468.40 450.57 455.29 452.69 439.19
  C 455.35 419.01 461.25 399.42 459.98 378.89
  C 468.82 377.62 477.65 376.22 486.46 374.70
  C 489.27 374.21 493.79 373.22 500.02 371.71
  C 504.47 370.63 509.00 369.73 513.63 369.02
  C 519.22 378.20 526.86 385.19 536.57 389.98
  C 536.87 390.13 537.23 390.02 537.39 389.73
  C 538.34 388.05 539.11 385.78 539.70 382.92
  C 541.15 375.81 542.18 370.47 542.79 366.89
  C 543.13 364.91 543.12 362.85 542.76 360.70
  C 542.85 360.63 542.91 360.47 542.96 360.22
  C 543.29 359.95 543.57 359.64 543.78 359.29
  L 552.70 355.86
  C 553.10 355.70 553.47 355.46 553.77 355.15
  C 554.58 354.31 554.96 353.50 554.89 352.72
  C 554.14 343.06 553.99 335.20 554.44 329.13
  C 554.55 327.52 555.25 325.88 556.53 324.21
  C 556.75 323.91 557.13 323.78 557.49 323.87
  C 558.25 324.06 559.10 324.73 560.05 325.88
  C 560.22 326.08 560.32 326.33 560.35 326.60
  C 560.47 327.71 560.55 331.57 560.60 338.16
  C 560.67 346.28 562.46 356.36 562.75 362.63
  C 563.02 368.42 563.41 372.79 563.94 375.73
  Z"
/>
<path fill="#966e3d" d="
  M 542.96 360.22
  C 542.91 360.47 542.85 360.63 542.76 360.70
  L 513.63 369.02
  C 509.00 369.73 504.47 370.63 500.02 371.71
  C 493.79 373.22 489.27 374.21 486.46 374.70
  C 477.65 376.22 468.82 377.62 459.98 378.89
  L 451.72 379.82
  C 463.09 364.37 476.09 353.64 495.56 350.13
  C 511.35 347.29 524.61 353.52 537.80 361.24
  C 538.08 361.41 538.42 361.45 538.74 361.36
  L 542.96 360.22
  Z"
/>
<path fill="#e2ccaf" d="
  M 233.24 363.96
  C 244.18 373.23 248.80 382.13 240.47 395.61
  C 237.12 401.02 233.39 405.91 231.58 411.77
  C 230.37 415.68 229.69 419.77 229.56 424.04
  C 226.47 408.38 224.81 397.91 224.57 392.64
  C 224.09 381.79 222.72 370.66 223.39 359.88
  C 223.40 359.62 223.68 359.46 223.92 359.57
  L 233.24 363.96
  Z"
/>
<path fill="#865f31" d="
  M 542.76 360.70
  C 543.12 362.85 543.13 364.91 542.79 366.89
  C 542.18 370.47 541.15 375.81 539.70 382.92
  C 539.11 385.78 538.34 388.05 537.39 389.73
  C 537.23 390.02 536.87 390.13 536.57 389.98
  C 526.86 385.19 519.22 378.20 513.63 369.02
  L 542.76 360.70
  Z"
/>
<path fill="#e1c5a0" d="
  M 233.24 363.96
  C 239.55 366.65 245.99 368.82 252.54 370.47
  C 264.69 373.52 276.90 376.03 289.17 378.02
  L 301.82 379.94
  C 299.34 398.89 298.19 417.10 298.33 436.97
  C 298.46 454.92 297.45 471.85 295.54 489.59
  C 293.71 506.65 293.33 524.33 293.48 540.01
  C 293.53 544.68 293.29 549.56 292.78 554.65
  C 292.27 559.67 290.99 567.19 285.52 569.15
  C 283.05 570.04 278.64 569.23 276.23 569.49
  C 266.95 570.49 264.24 582.77 262.80 590.12
  C 261.25 598.01 259.99 606.00 259.03 614.09
  C 258.50 609.47 257.53 604.03 256.10 597.76
  C 252.29 581.03 250.72 563.82 248.58 541.47
  C 247.92 534.56 246.23 527.53 245.31 520.77
  C 243.26 505.68 241.22 490.67 239.21 475.76
  C 238.77 472.49 237.88 468.45 236.55 463.63
  C 233.86 453.90 231.87 444.01 230.58 433.96
  L 229.56 424.04
  C 229.69 419.77 230.37 415.68 231.58 411.77
  C 233.39 405.91 237.12 401.02 240.47 395.61
  C 248.80 382.13 244.18 373.23 233.24 363.96
  Z"
/>
<path fill="#865f31" d="
  M 536.50 426.93
  C 534.33 434.38 532.86 440.94 532.07 446.61
  C 530.15 460.51 528.88 477.63 528.94 494.64
  C 528.98 506.83 528.65 519.60 527.96 532.97
  C 527.64 539.17 527.88 545.95 528.65 551.92
  C 528.65 551.95 528.68 551.97 528.71 551.97
  C 528.74 551.97 528.76 551.95 528.77 551.92
  C 530.39 543.18 531.05 534.95 532.52 526.35
  C 533.83 518.64 535.08 509.80 536.27 499.82
  C 538.58 480.37 539.99 466.45 542.90 442.93
  C 544.36 431.12 545.52 420.56 546.38 411.25
  C 546.57 409.14 546.52 406.72 546.21 403.99
  L 547.50 397.22
  C 547.51 397.18 547.56 397.15 547.60 397.17
  L 547.92 397.25
  C 548.03 397.28 548.10 397.38 548.09 397.49
  C 547.82 402.21 547.34 408.58 548.43 414.80
  C 549.34 420.06 550.01 426.05 550.43 432.78
  C 551.33 446.97 552.48 461.14 553.87 475.29
  C 550.22 508.90 546.80 540.90 543.69 576.26
  C 540.12 616.87 535.74 663.40 530.56 715.85
  C 529.75 724.04 529.07 729.91 528.50 733.45
  L 505.89 751.56
  C 501.27 753.63 496.60 755.65 491.87 757.64
  C 487.51 759.46 483.48 760.31 479.49 762.22
  C 479.26 762.33 479.02 762.41 478.77 762.46
  L 464.12 765.48
  C 459.03 764.62 454.02 764.87 449.10 766.24
  C 443.69 767.75 440.96 768.50 440.93 768.51
  C 434.01 769.83 426.45 769.95 420.03 770.82
  C 412.76 771.81 407.33 772.37 403.75 772.50
  C 392.63 772.91 379.37 772.70 363.96 771.86
  L 381.64 771.91
  C 381.94 771.91 382.24 771.87 382.54 771.80
  C 390.89 769.69 406.30 766.63 407.04 755.71
  C 407.27 752.34 407.14 749.63 406.67 747.60
  C 403.59 734.39 402.07 723.40 402.10 714.63
  C 402.15 698.98 402.25 683.13 402.39 667.08
  C 402.61 642.87 406.33 619.97 409.16 597.42
  C 410.52 586.53 411.83 572.21 413.10 554.45
  C 414.31 537.28 414.85 523.87 414.72 514.20
  C 414.49 497.58 412.50 478.41 411.70 463.76
  C 410.76 446.37 412.03 433.46 413.87 414.17
  C 414.86 403.82 413.96 393.61 411.15 383.52
  L 451.72 379.82
  L 459.98 378.89
  C 461.25 399.42 455.35 419.01 452.69 439.19
  C 450.57 455.29 449.34 468.40 448.99 478.52
  C 448.30 498.63 447.90 521.49 445.92 543.47
  C 444.43 560.09 443.22 574.11 442.29 585.54
  C 440.96 601.88 440.73 620.22 440.03 636.21
  C 439.88 639.72 439.69 642.70 439.46 645.15
  C 437.51 665.97 436.53 674.01 436.03 692.23
  C 435.70 704.09 434.94 716.40 433.74 729.17
  C 433.54 731.34 433.77 733.87 434.42 736.76
  C 436.69 746.89 449.67 745.18 457.30 743.36
  C 479.49 738.07 500.30 730.39 519.75 720.33
  C 519.98 720.21 520.26 720.33 520.34 720.58
  L 521.81 725.21
  C 521.91 725.52 522.35 725.52 522.44 725.21
  C 524.27 718.74 525.00 712.72 524.64 707.13
  C 523.85 695.14 523.46 686.78 523.47 682.03
  C 523.50 658.13 523.51 645.19 523.48 643.20
  C 523.33 630.66 522.30 618.63 520.39 607.12
  C 520.38 607.08 520.35 607.06 520.31 607.06
  C 520.28 607.06 520.25 607.08 520.24 607.12
  C 519.05 614.66 517.05 622.05 514.26 629.28
  C 514.19 629.45 513.94 629.44 513.90 629.26
  C 508.36 605.38 503.45 582.06 499.18 559.31
  C 495.41 539.26 493.44 519.49 493.27 500.02
  C 493.10 479.69 492.93 459.34 492.78 438.97
  C 492.64 419.27 492.96 403.48 493.06 385.10
  C 493.07 382.15 493.21 379.38 493.48 376.78
  C 493.51 376.43 493.80 376.16 494.15 376.14
  C 494.82 376.11 495.15 376.39 495.14 377.00
  C 494.95 387.21 496.33 396.23 499.27 404.08
  C 504.96 419.24 515.67 444.08 536.50 426.93
  Z
  M 493.1323 752.0376
  C 493.04 751.71 486.64 753.23 478.8349 755.4228
  C 471.03 757.62 464.78 759.66 464.8677 759.9824
  C 464.96 760.31 471.36 758.79 479.1651 756.5972
  C 486.97 754.40 493.22 752.36 493.1323 752.0376
  Z
  M 472.53 761.50
  L 472.40 760.81
  C 472.38 760.71 472.28 760.63 472.17 760.65
  L 465.43 761.88
  C 460.74 762.73 456.97 763.62 457.02 763.86
  L 457.05 764.06
  C 457.10 764.30 460.94 763.81 465.63 762.96
  L 472.37 761.74
  C 472.47 761.72 472.55 761.61 472.53 761.50
  Z"
/>
<path fill="#966e3d" d="
  M 410.26 383.39
  C 410.64 383.50 410.94 383.55 411.15 383.52
  C 413.96 393.61 414.86 403.82 413.87 414.17
  C 412.03 433.46 410.76 446.37 411.70 463.76
  C 412.50 478.41 414.49 497.58 414.72 514.20
  C 414.85 523.87 414.31 537.28 413.10 554.45
  C 411.83 572.21 410.52 586.53 409.16 597.42
  C 406.33 619.97 402.61 642.87 402.39 667.08
  C 402.25 683.13 402.15 698.98 402.10 714.63
  C 402.07 723.40 403.59 734.39 406.67 747.60
  C 407.14 749.63 407.27 752.34 407.04 755.71
  C 406.30 766.63 390.89 769.69 382.54 771.80
  C 382.24 771.87 381.94 771.91 381.64 771.91
  L 363.96 771.86
  L 362.22 771.73
  L 345.47 770.10
  L 362.21 770.98
  C 362.53 771.00 362.85 770.98 363.16 770.93
  C 370.97 769.71 377.76 768.19 383.54 766.36
  C 393.22 763.29 397.92 757.95 395.38 747.50
  C 393.16 738.37 391.81 731.64 391.33 727.32
  C 390.53 720.20 390.15 713.03 390.19 705.82
  C 390.35 678.86 389.54 657.05 393.24 633.68
  C 396.60 612.43 399.41 596.04 400.54 577.44
  C 401.60 560.11 402.00 540.69 401.74 519.16
  C 401.57 504.85 400.32 491.66 398.65 476.80
  C 397.00 462.04 396.90 446.80 398.36 431.08
  C 400.33 409.90 401.52 400.53 400.18 383.93
  L 410.26 383.39
  Z"
/>
<path fill="#b58f61" d="
  M 368.28 384.43
  C 369.13 406.70 367.36 427.51 367.31 447.54
  C 367.25 468.60 368.80 485.30 369.86 510.14
  C 370.43 523.47 370.51 541.67 370.10 564.75
  C 369.85 578.74 369.07 592.43 367.75 605.80
  C 366.40 619.48 363.81 635.86 362.91 651.47
  C 362.01 667.10 361.79 683.89 362.26 701.84
  C 362.66 717.08 364.31 729.79 366.29 744.96
  C 367.99 757.99 362.59 763.57 351.69 769.17
  C 351.43 769.30 351.15 769.36 350.86 769.35
  L 336.21 768.80
  C 323.91 767.07 313.60 764.92 305.28 762.35
  C 298.63 760.29 294.02 758.95 291.45 758.32
  C 291.08 758.23 290.26 757.82 289.00 757.08
  C 289.58 757.16 290.04 757.12 290.39 756.95
  C 290.71 756.80 290.80 756.38 290.58 756.11
  C 289.61 754.91 288.03 754.13 285.84 753.76
  C 285.31 753.67 284.85 754.13 284.93 754.66
  C 284.95 754.77 285.13 754.97 285.46 755.25
  L 274.84 752.01
  C 274.46 751.89 274.08 752.20 274.11 752.60
  L 274.47 757.48
  C 274.47 759.21 274.15 760.82 273.52 762.31
  C 267.79 754.89 263.71 747.08 262.72 737.70
  C 268.55 742.50 274.69 746.78 281.13 750.55
  C 281.41 750.72 281.72 750.83 282.04 750.90
  C 304.34 755.67 316.22 758.18 317.69 758.45
  C 325.39 759.86 342.01 763.25 339.91 749.31
  C 338.38 739.12 337.08 730.78 337.33 720.87
  C 338.34 679.77 339.99 640.61 343.07 601.46
  C 344.23 586.75 344.89 577.36 345.05 573.27
  C 346.62 533.87 344.41 490.64 342.76 453.48
  C 342.57 449.12 342.67 434.97 343.07 411.02
  C 343.22 402.29 342.97 393.79 342.51 384.46
  C 342.49 384.05 342.82 383.71 343.23 383.73
  L 368.28 384.43
  Z"
/>
<path fill="#a17947" d="
  M 400.18 383.93
  C 401.52 400.53 400.33 409.90 398.36 431.08
  C 396.90 446.80 397.00 462.04 398.65 476.80
  C 400.32 491.66 401.57 504.85 401.74 519.16
  C 402.00 540.69 401.60 560.11 400.54 577.44
  C 399.41 596.04 396.60 612.43 393.24 633.68
  C 389.54 657.05 390.35 678.86 390.19 705.82
  C 390.15 713.03 390.53 720.20 391.33 727.32
  C 391.81 731.64 393.16 738.37 395.38 747.50
  C 397.92 757.95 393.22 763.29 383.54 766.36
  C 377.76 768.19 370.97 769.71 363.16 770.93
  C 362.85 770.98 362.53 771.00 362.21 770.98
  L 345.47 770.10
  L 336.21 768.80
  L 350.86 769.35
  C 351.15 769.36 351.43 769.30 351.69 769.17
  C 362.59 763.57 367.99 757.99 366.29 744.96
  C 364.31 729.79 362.66 717.08 362.26 701.84
  C 361.79 683.89 362.01 667.10 362.91 651.47
  C 363.81 635.86 366.40 619.48 367.75 605.80
  C 369.07 592.43 369.85 578.74 370.10 564.75
  C 370.51 541.67 370.43 523.47 369.86 510.14
  C 368.80 485.30 367.25 468.60 367.31 447.54
  C 367.36 427.51 369.13 406.70 368.28 384.43
  L 372.99 384.53
  L 400.18 383.93
  Z"
/>
<path fill="#966e3d" d="
  M 536.50 426.93
  C 541.12 419.36 543.41 412.95 546.21 403.99
  C 546.52 406.72 546.57 409.14 546.38 411.25
  C 545.52 420.56 544.36 431.12 542.90 442.93
  C 539.99 466.45 538.58 480.37 536.27 499.82
  C 535.08 509.80 533.83 518.64 532.52 526.35
  C 531.05 534.95 530.39 543.18 528.77 551.92
  C 528.76 551.95 528.74 551.97 528.71 551.97
  C 528.68 551.97 528.65 551.95 528.65 551.92
  C 527.88 545.95 527.64 539.17 527.96 532.97
  C 528.65 519.60 528.98 506.83 528.94 494.64
  C 528.88 477.63 530.15 460.51 532.07 446.61
  C 532.86 440.94 534.33 434.38 536.50 426.93
  Z"
/>
<path fill="#e2ccaf" d="
  M 259.03 614.09
  C 259.65 619.85 260.61 625.93 260.97 631.37
  C 261.22 635.10 261.65 639.16 262.27 643.55
  C 263.87 654.83 264.03 666.30 265.02 676.85
  C 265.84 685.55 265.72 695.10 266.20 702.85
  C 266.67 710.49 265.64 717.28 266.98 724.80
  C 267.77 729.23 268.39 733.23 268.84 736.80
  C 269.05 738.43 267.10 739.43 265.90 738.30
  L 262.20 734.79
  C 254.19 685.35 247.19 635.78 241.22 586.08
  C 241.67 560.41 240.40 534.82 237.41 509.32
  C 235.82 495.75 234.20 482.19 232.55 468.62
  C 231.68 461.43 231.02 449.88 230.58 433.96
  C 231.87 444.01 233.86 453.90 236.55 463.63
  C 237.88 468.45 238.77 472.49 239.21 475.76
  C 241.22 490.67 243.26 505.68 245.31 520.77
  C 246.23 527.53 247.92 534.56 248.58 541.47
  C 250.72 563.82 252.29 581.03 256.10 597.76
  C 257.53 604.03 258.50 609.47 259.03 614.09
  Z"
/>
<path fill="#e2ccaf" d="
  M 528.50 733.45
  C 527.59 744.25 523.72 753.40 516.89 760.89
  C 517.59 758.76 518.64 756.72 520.05 754.77
  C 520.14 754.64 520.22 754.49 520.28 754.34
  L 521.54 750.92
  C 521.77 750.31 521.48 749.63 520.88 749.36
  C 519.86 748.85 515.24 750.36 510.51 751.43
  C 509.42 751.68 507.88 751.72 505.89 751.56
  L 528.50 733.45
  Z"
/>
<path fill="#ebebe5" d="
  M 516.89 760.89
  C 514.48 763.70 511.69 766.21 508.52 768.44
  C 506.53 769.03 504.75 770.02 503.20 771.41
  C 502.96 771.63 502.69 771.80 502.39 771.93
  C 499.74 773.06 497.76 774.68 494.85 775.96
  C 486.66 779.59 478.32 783.15 469.84 786.64
  C 464.41 788.76 458.63 790.44 452.51 791.67
  C 451.75 791.36 451.37 790.82 451.36 790.03
  C 451.35 789.69 451.46 789.36 451.65 789.08
  L 453.30 786.74
  C 453.64 786.25 453.47 785.57 452.94 785.30
  C 452.69 785.17 452.29 785.07 451.72 785.01
  C 451.03 784.95 450.67 784.80 450.63 784.57
  C 450.53 783.95 450.95 783.35 451.60 783.18
  C 454.03 782.55 455.25 782.23 455.28 782.22
  C 455.75 782.05 455.70 781.37 455.21 781.28
  C 453.30 780.93 452.30 779.28 452.19 776.33
  C 452.14 775.14 452.50 774.35 453.27 773.97
  C 453.58 773.82 454.03 773.36 454.62 772.60
  C 454.74 772.44 454.82 772.25 454.84 772.05
  C 454.90 771.48 454.66 770.94 454.11 770.41
  C 453.55 769.88 453.81 768.94 454.54 768.86
  C 455.11 768.79 455.67 768.50 456.22 767.97
  L 464.12 765.48
  L 478.77 762.46
  C 479.02 762.41 479.26 762.33 479.49 762.22
  C 483.48 760.31 487.51 759.46 491.87 757.64
  C 496.60 755.65 501.27 753.63 505.89 751.56
  C 507.88 751.72 509.42 751.68 510.51 751.43
  C 515.24 750.36 519.86 748.85 520.88 749.36
  C 521.48 749.63 521.77 750.31 521.54 750.92
  L 520.28 754.34
  C 520.22 754.49 520.14 754.64 520.05 754.77
  C 518.64 756.72 517.59 758.76 516.89 760.89
  Z
  M 493.97 766.34
  C 493.78 766.43 493.63 766.58 493.52 766.77
  C 493.41 766.94 493.40 767.10 493.48 767.24
  C 493.57 767.39 493.71 767.47 493.91 767.50
  L 495.28 767.92
  C 495.76 768.07 495.87 768.69 495.47 768.99
  L 488.28 774.39
  C 488.21 774.44 488.20 774.54 488.25 774.61
  L 488.44 774.86
  C 488.56 775.02 488.78 775.07 488.95 774.97
  C 497.46 770.36 502.20 767.76 503.19 767.17
  C 505.84 765.60 507.99 763.72 509.64 761.55
  C 510.02 761.05 509.70 760.32 509.07 760.28
  C 502.27 759.83 495.62 761.40 488.95 762.61
  C 486.50 763.05 483.73 762.83 481.10 763.32
  C 480.89 763.36 480.86 763.64 481.06 763.72
  C 483.98 764.85 489.80 763.93 492.96 763.30
  C 493.86 763.12 494.75 763.65 495.03 764.53
  C 495.12 764.84 494.77 765.44 493.97 766.34
  Z"
/>
<path fill="#7c674f" d="
  M 285.46 755.25
  C 286.45 756.16 287.63 756.77 289.00 757.08
  C 290.26 757.82 291.08 758.23 291.45 758.32
  C 294.02 758.95 298.63 760.29 305.28 762.35
  C 313.60 764.92 323.91 767.07 336.21 768.80
  L 345.47 770.10
  L 362.22 771.73
  L 344.22 770.80
  C 344.15 770.80 344.09 770.85 344.07 770.92
  L 343.90 771.57
  C 343.87 771.69 343.94 771.82 344.06 771.86
  L 347.77 773.09
  C 342.36 772.37 336.96 771.52 331.58 770.54
  C 326.00 769.52 320.46 768.98 315.99 769.55
  C 314.58 769.73 314.07 771.51 315.17 772.42
  C 315.27 772.50 315.38 772.64 315.49 772.84
  C 315.67 773.15 315.99 773.36 316.35 773.41
  C 327.56 775.05 337.24 776.68 345.38 778.29
  C 350.32 779.27 353.43 782.56 356.24 786.31
  C 356.44 786.58 356.26 786.96 355.93 786.98
  C 352.46 787.21 348.99 787.04 345.53 786.47
  C 339.15 785.41 332.77 784.03 326.38 782.34
  C 324.19 781.75 321.85 782.16 319.38 783.55
  C 319.24 784.35 319.66 784.95 320.64 785.35
  C 321.49 785.70 322.19 785.82 322.74 785.73
  C 337.25 788.32 351.75 790.93 366.26 793.55
  C 372.68 794.71 377.67 795.27 381.22 795.23
  C 389.06 795.15 396.54 794.78 403.66 794.13
  C 404.37 794.07 404.80 793.78 404.95 793.27
  C 405.26 792.18 405.27 791.14 404.97 790.16
  C 404.85 789.76 404.52 789.47 404.12 789.38
  C 398.33 788.16 392.96 787.58 388.02 787.64
  C 384.37 787.69 381.12 787.13 378.12 785.69
  C 378.09 785.67 378.07 785.63 378.08 785.60
  C 378.10 785.56 378.13 785.54 378.17 785.55
  C 378.76 785.68 379.26 785.86 379.65 786.10
  C 379.99 786.31 380.41 786.35 380.78 786.22
  C 382.23 785.69 383.22 785.42 383.73 785.42
  C 397.59 785.36 404.89 785.80 414.12 783.59
  C 417.46 782.79 420.70 782.46 423.85 782.60
  C 424.47 782.63 425.03 782.22 425.19 781.62
  L 426.46 776.88
  C 426.49 776.76 426.43 776.64 426.31 776.61
  L 425.96 776.52
  C 425.95 776.51 425.94 776.52 425.93 776.53
  L 424.81 781.66
  C 424.78 781.77 424.70 781.85 424.62 781.84
  L 424.61 781.84
  C 424.48 781.84 424.37 781.71 424.40 781.58
  L 425.24 777.21
  C 425.32 776.82 425.58 776.49 425.95 776.33
  L 429.28 774.89
  L 441.31 773.46
  C 441.52 773.44 441.66 773.67 441.54 773.84
  L 432.84 786.92
  L 419.23 787.00
  C 419.17 787.00 419.12 786.95 419.13 786.90
  L 419.16 786.64
  C 419.17 786.49 419.31 786.38 419.46 786.41
  C 423.37 787.02 427.36 787.17 431.45 786.84
  C 432.13 786.79 432.31 785.88 431.70 785.57
  C 430.03 784.72 428.38 784.28 426.74 784.27
  C 420.77 784.22 415.19 784.79 410.00 786.00
  C 409.55 786.11 409.53 786.74 409.97 786.88
  C 412.82 787.75 415.23 789.26 417.19 791.40
  C 418.36 792.68 420.19 793.56 421.61 793.03
  C 426.32 791.27 431.20 790.17 436.26 789.73
  C 438.37 789.55 441.12 788.62 444.50 786.93
  C 445.39 786.77 446.25 786.39 447.06 785.80
  C 448.56 785.05 450.11 784.79 451.72 785.01
  C 452.29 785.07 452.69 785.17 452.94 785.30
  C 453.47 785.57 453.64 786.25 453.30 786.74
  L 451.65 789.08
  C 451.46 789.36 451.35 789.69 451.36 790.03
  C 451.37 790.82 451.75 791.36 452.51 791.67
  C 434.60 795.80 415.93 797.90 396.50 797.95
  C 384.47 797.99 373.89 797.78 364.75 797.31
  C 343.42 796.21 322.53 790.38 302.79 782.18
  C 295.40 779.11 288.41 775.13 281.83 770.26
  C 285.73 771.29 289.00 770.75 291.63 768.64
  C 291.83 768.48 291.79 768.16 291.56 768.05
  C 289.23 766.90 286.85 765.89 284.41 765.01
  C 280.18 763.49 277.19 760.90 274.47 757.48
  L 274.11 752.60
  C 274.08 752.20 274.46 751.89 274.84 752.01
  L 285.46 755.25
  Z
  M 447.7800 789.2988
  C 447.78 788.65 447.05 788.13 446.1618 788.1400
  C 445.27 788.15 444.56 788.68 444.5600 789.3212
  C 444.56 789.97 445.29 790.49 446.1782 790.4800
  C 447.07 790.47 447.78 789.94 447.7800 789.2988
  Z"
/>
<ellipse fill="#7c674f" cx="0.00" cy="0.00" transform="translate(479.00,756.01) rotate(-15.7)" rx="14.68" ry="0.61"/>
<path fill="#e2ccaf" d="
  M 289.00 757.08
  C 287.63 756.77 286.45 756.16 285.46 755.25
  C 285.13 754.97 284.95 754.77 284.93 754.66
  C 284.85 754.13 285.31 753.67 285.84 753.76
  C 288.03 754.13 289.61 754.91 290.58 756.11
  C 290.80 756.38 290.71 756.80 290.39 756.95
  C 290.04 757.12 289.58 757.16 289.00 757.08
  Z"
/>
<path fill="#94836c" d="
  M 281.83 770.26
  C 278.72 768.07 275.95 765.42 273.52 762.31
  C 274.15 760.82 274.47 759.21 274.47 757.48
  C 277.19 760.90 280.18 763.49 284.41 765.01
  C 286.85 765.89 289.23 766.90 291.56 768.05
  C 291.79 768.16 291.83 768.48 291.63 768.64
  C 289.00 770.75 285.73 771.29 281.83 770.26
  Z"
/>
<path fill="#ceae87" d="
  M 493.91 767.50
  C 496.29 767.63 497.83 766.90 498.52 765.31
  C 498.91 764.42 497.88 763.58 497.08 764.14
  L 493.97 766.34
  C 494.77 765.44 495.12 764.84 495.03 764.53
  C 494.75 763.65 493.86 763.12 492.96 763.30
  C 489.80 763.93 483.98 764.85 481.06 763.72
  C 480.86 763.64 480.89 763.36 481.10 763.32
  C 483.73 762.83 486.50 763.05 488.95 762.61
  C 495.62 761.40 502.27 759.83 509.07 760.28
  C 509.70 760.32 510.02 761.05 509.64 761.55
  C 507.99 763.72 505.84 765.60 503.19 767.17
  C 502.20 767.76 497.46 770.36 488.95 774.97
  C 488.78 775.07 488.56 775.02 488.44 774.86
  L 488.25 774.61
  C 488.20 774.54 488.21 774.44 488.28 774.39
  L 495.47 768.99
  C 495.87 768.69 495.76 768.07 495.28 767.92
  L 493.91 767.50
  Z"
/>
<path fill="#724c24" d="
  M 472.53 761.50
  C 472.55 761.61 472.47 761.72 472.37 761.74
  L 465.63 762.96
  C 460.94 763.81 457.10 764.30 457.05 764.06
  L 457.02 763.86
  C 456.97 763.62 460.74 762.73 465.43 761.88
  L 472.17 760.65
  C 472.28 760.63 472.38 760.71 472.40 760.81
  L 472.53 761.50
  Z"
/>
<path fill="#94836c" d="
  M 493.91 767.50
  C 493.71 767.47 493.57 767.39 493.48 767.24
  C 493.40 767.10 493.41 766.94 493.52 766.77
  C 493.63 766.58 493.78 766.43 493.97 766.34
  L 497.08 764.14
  C 497.88 763.58 498.91 764.42 498.52 765.31
  C 497.83 766.90 496.29 767.63 493.91 767.50
  Z"
/>
<path fill="#724c24" d="
  M 464.12 765.48
  L 456.22 767.97
  C 443.63 770.41 430.99 772.23 418.30 773.43
  C 414.07 774.35 409.80 774.82 405.50 774.85
  C 389.07 774.96 372.65 774.49 356.26 773.45
  C 353.41 773.27 350.58 773.15 347.77 773.09
  L 344.06 771.86
  C 343.94 771.82 343.87 771.69 343.90 771.57
  L 344.07 770.92
  C 344.09 770.85 344.15 770.80 344.22 770.80
  L 362.22 771.73
  L 363.96 771.86
  C 379.37 772.70 392.63 772.91 403.75 772.50
  C 407.33 772.37 412.76 771.81 420.03 770.82
  C 426.45 769.95 434.01 769.83 440.93 768.51
  C 440.96 768.50 443.69 767.75 449.10 766.24
  C 454.02 764.87 459.03 764.62 464.12 765.48
  Z"
/>
<path fill="#ceae87" d="
  M 456.22 767.97
  C 455.67 768.50 455.11 768.79 454.54 768.86
  C 453.81 768.94 453.55 769.88 454.11 770.41
  C 454.66 770.94 454.90 771.48 454.84 772.05
  C 454.82 772.25 454.74 772.44 454.62 772.60
  C 454.03 773.36 453.58 773.82 453.27 773.97
  C 452.50 774.35 452.14 775.14 452.19 776.33
  C 452.30 779.28 453.30 780.93 455.21 781.28
  C 455.70 781.37 455.75 782.05 455.28 782.22
  C 455.25 782.23 454.03 782.55 451.60 783.18
  C 450.95 783.35 450.53 783.95 450.63 784.57
  C 450.67 784.80 451.03 784.95 451.72 785.01
  C 450.11 784.79 448.56 785.05 447.06 785.80
  C 446.30 785.25 445.71 784.60 445.28 783.85
  C 446.49 782.54 446.56 781.31 445.48 780.15
  C 446.07 779.57 446.72 779.13 447.45 778.84
  C 447.78 778.70 447.99 778.37 447.96 778.01
  L 447.82 776.44
  C 447.80 776.18 447.50 776.03 447.27 776.18
  C 446.18 776.90 445.46 777.91 445.09 779.22
  C 445.07 779.31 444.94 779.29 444.93 779.20
  L 444.84 778.19
  C 444.81 777.87 444.40 777.75 444.20 778.01
  L 443.79 778.56
  L 439.71 786.00
  C 439.66 786.07 439.57 786.10 439.49 786.07
  L 439.48 786.07
  C 439.38 786.03 439.32 785.91 439.36 785.81
  L 443.57 774.65
  C 443.62 774.51 443.57 774.36 443.44 774.29
  C 443.32 774.21 443.15 774.24 443.06 774.35
  C 440.55 777.30 438.31 780.72 436.36 784.59
  C 435.41 786.48 434.23 787.25 432.84 786.92
  L 441.54 773.84
  C 441.66 773.67 441.52 773.44 441.31 773.46
  L 429.28 774.89
  C 427.18 775.28 425.29 776.20 423.62 777.65
  C 423.41 777.84 423.07 777.74 422.99 777.47
  C 422.68 776.45 421.98 775.51 420.87 774.66
  C 420.56 774.42 420.10 774.55 419.96 774.91
  L 418.76 778.12
  C 418.70 778.27 418.54 778.36 418.38 778.33
  C 418.22 778.30 418.10 778.15 418.11 777.99
  L 418.30 773.43
  C 430.99 772.23 443.63 770.41 456.22 767.97
  Z"
/>
<path fill="#ceae87" d="
  M 508.52 768.44
  C 506.64 769.99 504.68 771.40 502.64 772.66
  C 492.50 778.93 481.57 783.59 469.84 786.64
  C 478.32 783.15 486.66 779.59 494.85 775.96
  C 497.76 774.68 499.74 773.06 502.39 771.93
  C 502.69 771.80 502.96 771.63 503.20 771.41
  C 504.75 770.02 506.53 769.03 508.52 768.44
  Z"
/>
<path fill="#94836c" d="
  M 347.77 773.09
  C 350.58 773.15 353.41 773.27 356.26 773.45
  C 372.65 774.49 389.07 774.96 405.50 774.85
  C 409.80 774.82 414.07 774.35 418.30 773.43
  L 418.11 777.99
  C 418.10 778.15 418.22 778.30 418.38 778.33
  C 418.54 778.36 418.70 778.27 418.76 778.12
  L 419.96 774.91
  C 420.10 774.55 420.56 774.42 420.87 774.66
  C 421.98 775.51 422.68 776.45 422.99 777.47
  C 423.07 777.74 423.41 777.84 423.62 777.65
  C 425.29 776.20 427.18 775.28 429.28 774.89
  L 425.95 776.33
  C 425.58 776.49 425.32 776.82 425.24 777.21
  L 424.40 781.58
  C 424.37 781.71 424.48 781.84 424.61 781.84
  L 424.62 781.84
  C 424.70 781.85 424.78 781.77 424.81 781.66
  L 425.93 776.53
  C 425.94 776.52 425.95 776.51 425.96 776.52
  L 426.31 776.61
  C 426.43 776.64 426.49 776.76 426.46 776.88
  L 425.19 781.62
  C 425.03 782.22 424.47 782.63 423.85 782.60
  C 420.70 782.46 417.46 782.79 414.12 783.59
  C 404.89 785.80 397.59 785.36 383.73 785.42
  C 383.22 785.42 382.23 785.69 380.78 786.22
  C 380.41 786.35 379.99 786.31 379.65 786.10
  C 379.26 785.86 378.76 785.68 378.17 785.55
  C 378.13 785.54 378.10 785.56 378.08 785.60
  C 378.07 785.63 378.09 785.67 378.12 785.69
  C 381.12 787.13 384.37 787.69 388.02 787.64
  C 392.96 787.58 398.33 788.16 404.12 789.38
  C 404.52 789.47 404.85 789.76 404.97 790.16
  C 405.27 791.14 405.26 792.18 404.95 793.27
  C 404.80 793.78 404.37 794.07 403.66 794.13
  C 396.54 794.78 389.06 795.15 381.22 795.23
  C 377.67 795.27 372.68 794.71 366.26 793.55
  C 351.75 790.93 337.25 788.32 322.74 785.73
  C 323.57 786.05 324.08 786.02 324.29 785.64
  C 324.63 785.02 324.27 784.24 323.58 784.09
  C 322.20 783.80 320.80 783.62 319.38 783.55
  C 321.85 782.16 324.19 781.75 326.38 782.34
  C 332.77 784.03 339.15 785.41 345.53 786.47
  C 348.99 787.04 352.46 787.21 355.93 786.98
  C 356.26 786.96 356.44 786.58 356.24 786.31
  C 353.43 782.56 350.32 779.27 345.38 778.29
  C 337.24 776.68 327.56 775.05 316.35 773.41
  C 315.99 773.36 315.67 773.15 315.49 772.84
  C 315.38 772.64 315.27 772.50 315.17 772.42
  C 314.07 771.51 314.58 769.73 315.99 769.55
  C 320.46 768.98 326.00 769.52 331.58 770.54
  C 336.96 771.52 342.36 772.37 347.77 773.09
  Z
  M 398.73 777.89
  L 377.71 778.03
  C 377.63 778.03 377.57 778.10 377.57 778.18
  L 377.57 778.26
  C 377.57 779.00 382.28 779.56 388.09 779.52
  L 388.39 779.52
  C 394.19 779.48 398.89 778.85 398.89 778.12
  L 398.89 778.04
  C 398.88 777.95 398.82 777.89 398.73 777.89
  Z"
/>
<path fill="#94836c" d="
  M 443.79 778.56
  L 443.28 780.71
  L 441.81 785.56
  C 441.38 785.85 441.09 786.13 440.92 786.40
  C 440.76 786.67 440.90 787.01 441.20 787.10
  C 442.13 787.38 443.23 787.32 444.50 786.93
  C 441.12 788.62 438.37 789.55 436.26 789.73
  C 431.20 790.17 426.32 791.27 421.61 793.03
  C 420.19 793.56 418.36 792.68 417.19 791.40
  C 415.23 789.26 412.82 787.75 409.97 786.88
  C 409.53 786.74 409.55 786.11 410.00 786.00
  C 415.19 784.79 420.77 784.22 426.74 784.27
  C 428.38 784.28 430.03 784.72 431.70 785.57
  C 432.31 785.88 432.13 786.79 431.45 786.84
  C 427.36 787.17 423.37 787.02 419.46 786.41
  C 419.31 786.38 419.17 786.49 419.16 786.64
  L 419.13 786.90
  C 419.12 786.95 419.17 787.00 419.23 787.00
  L 432.84 786.92
  C 434.23 787.25 435.41 786.48 436.36 784.59
  C 438.31 780.72 440.55 777.30 443.06 774.35
  C 443.15 774.24 443.32 774.21 443.44 774.29
  C 443.57 774.36 443.62 774.51 443.57 774.65
  L 439.36 785.81
  C 439.32 785.91 439.38 786.03 439.48 786.07
  L 439.49 786.07
  C 439.57 786.10 439.66 786.07 439.71 786.00
  L 443.79 778.56
  Z"
/>
<path fill="#e2ccaf" d="
  M 445.48 780.15
  C 445.15 781.36 445.08 782.60 445.28 783.85
  C 445.71 784.60 446.30 785.25 447.06 785.80
  C 446.25 786.39 445.39 786.77 444.50 786.93
  C 443.23 787.32 442.13 787.38 441.20 787.10
  C 440.90 787.01 440.76 786.67 440.92 786.40
  C 441.09 786.13 441.38 785.85 441.81 785.56
  C 442.65 784.07 443.14 782.45 443.28 780.71
  L 443.79 778.56
  L 444.20 778.01
  C 444.40 777.75 444.81 777.87 444.84 778.19
  L 444.93 779.20
  C 444.94 779.29 445.07 779.31 445.09 779.22
  C 445.46 777.91 446.18 776.90 447.27 776.18
  C 447.50 776.03 447.80 776.18 447.82 776.44
  L 447.96 778.01
  C 447.99 778.37 447.78 778.70 447.45 778.84
  C 446.72 779.13 446.07 779.57 445.48 780.15
  Z"
/>
<path fill="#7c674f" d="
  M 398.73 777.89
  C 398.82 777.89 398.88 777.95 398.89 778.04
  L 398.89 778.12
  C 398.89 778.85 394.19 779.48 388.39 779.52
  L 388.09 779.52
  C 382.28 779.56 377.57 779.00 377.57 778.26
  L 377.57 778.18
  C 377.57 778.10 377.63 778.03 377.71 778.03
  L 398.73 777.89
  Z"
/>
<path fill="#ebebe5" d="
  M 445.28 783.85
  C 445.08 782.60 445.15 781.36 445.48 780.15
  C 446.56 781.31 446.49 782.54 445.28 783.85
  Z"
/>
<path fill="#ceae87" d="
  M 443.28 780.71
  C 443.14 782.45 442.65 784.07 441.81 785.56
  L 443.28 780.71
  Z"
/>
<path fill="#ecddc7" d="
  M 322.74 785.73
  C 322.19 785.82 321.49 785.70 320.64 785.35
  C 319.66 784.95 319.24 784.35 319.38 783.55
  C 320.80 783.62 322.20 783.80 323.58 784.09
  C 324.27 784.24 324.63 785.02 324.29 785.64
  C 324.08 786.02 323.57 786.05 322.74 785.73
  Z"
/>
<ellipse fill="#e2ccaf" cx="0.00" cy="0.00" transform="translate(446.17,789.31) rotate(-0.4)" rx="1.61" ry="1.17"/>
</svg>
